<svg width="24" height="24" viewBox="0 0 24 24" fill="none" xmlns="http://www.w3.org/2000/svg">
<path d="M6.94109 21.1C6.69981 20.85 6.57916 20.554 6.57916 20.212C6.57916 19.8707 6.69981 19.575 6.94109 19.325L14.0108 12L6.91696 4.65C6.69176 4.41667 6.57916 4.125 6.57916 3.775C6.57916 3.425 6.69981 3.125 6.94109 2.875C7.18238 2.625 7.46806 2.5 7.79814 2.5C8.12758 2.5 8.41294 2.625 8.65423 2.875L16.7615 11.3C16.858 11.4 16.9265 11.5083 16.967 11.625C17.0069 11.7417 17.0269 11.8667 17.0269 12C17.0269 12.1333 17.0069 12.2583 16.967 12.375C16.9265 12.4917 16.858 12.6 16.7615 12.7L8.6301 21.125C8.4049 21.3583 8.12758 21.475 7.79814 21.475C7.46806 21.475 7.18238 21.35 6.94109 21.1Z" fill="white"/>
</svg>
