<svg width="50" height="50" viewBox="0 0 50 50" fill="none" xmlns="http://www.w3.org/2000/svg">
<path d="M3.15429 3.4668C1.61132 3.88672 0.419911 5.13672 0.0976453 6.66993C0.0292859 7.02149 -1.09859e-05 11.8848 0.0195203 22.8027L0.0488171 38.4277L0.283192 38.9941C0.71288 40.0781 1.67968 41.0156 2.80272 41.4355L3.36913 41.6504L16.2891 41.6797L29.1992 41.6992V43.8867C29.1992 45.0977 29.2285 46.1523 29.2578 46.2402C29.3359 46.4355 29.7949 46.6797 30.0879 46.6797C30.2441 46.6797 30.7715 46.2207 31.7871 45.2148C32.5976 44.4141 33.3008 43.75 33.3496 43.75C33.3984 43.75 34.1016 44.4043 34.9121 45.2148C36.5527 46.8457 36.6894 46.9141 37.2168 46.3965L37.5 46.1133V43.9063V41.709L42.0703 41.6797C46.4844 41.6504 46.6504 41.6406 47.1973 41.4355C48.3203 41.0156 49.2871 40.0781 49.7168 38.9941L49.9512 38.4277L49.9805 22.8027C50 11.8848 49.9707 7.02149 49.9023 6.66993C49.6582 5.52735 48.7695 4.32618 47.7734 3.81836C46.748 3.29102 47.9687 3.32032 24.9512 3.33008C6.92382 3.33008 3.58397 3.34961 3.15429 3.4668ZM46.5723 5.13672C47.168 5.3125 47.7734 5.81055 48.0762 6.38672L48.291 6.78711L48.3203 22.3145C48.3496 39.5117 48.3887 38.3398 47.7051 39.1309C47.5195 39.3457 47.1582 39.6289 46.9043 39.7559L46.4355 39.9902L41.9726 40.0195L37.5 40.0488V38.1152V36.1914L37.9101 35.7715L38.3203 35.3516L39.7949 36.8164C40.6055 37.6172 41.3574 38.291 41.4648 38.291C41.875 38.3203 42.0508 38.2617 42.2656 38.0273L42.4805 37.7832V31.9922C42.4805 26.4258 42.4902 26.1719 42.6758 25.7715C42.7832 25.5371 42.8711 25.2246 42.8711 25.0781C42.8711 24.7754 43.1836 24.5117 43.5351 24.5117C43.8672 24.5117 44.4629 24.1797 44.7949 23.7891C45.2344 23.3008 45.3516 22.8516 45.2734 22.0117L45.2051 21.2988L45.5957 21.0547C46.416 20.5371 46.8164 19.6191 46.6016 18.7695C46.5332 18.5156 46.3672 18.1543 46.2305 17.959C46.1035 17.7734 45.9961 17.5684 45.9961 17.5098C45.9961 17.4414 46.1426 17.168 46.3184 16.8848C46.582 16.4551 46.6309 16.2891 46.6309 15.7812C46.6211 15 46.3379 14.4629 45.7031 14.0039L45.2148 13.6523L45.2734 12.8613C45.3223 12.1484 45.3027 12.0117 45.0976 11.6211C44.8144 11.0645 44.1699 10.5762 43.623 10.498C43.0273 10.4102 42.959 10.3418 42.8613 9.80469C42.7441 9.19922 42.3926 8.67188 41.875 8.33008C41.5039 8.07617 41.3867 8.05664 40.5469 8.05664H39.6289L39.3359 7.64648C39.0332 7.19727 38.4277 6.79688 37.9101 6.68945C37.4902 6.60156 36.7187 6.79688 36.3183 7.08984C35.918 7.38281 35.7129 7.38281 35.3125 7.08008C34.3652 6.35742 33.0078 6.63086 32.2949 7.70508L32.0117 8.11523L31.2793 8.05664C29.834 7.91992 29.082 8.52539 28.7598 10.0781C28.7207 10.2734 28.6328 10.3613 28.4375 10.4102C27.6367 10.5859 27.4414 10.6738 27.0801 10.9863C26.5137 11.4746 26.3183 12.0117 26.3965 12.9297L26.4648 13.6523L25.957 14.0234C25.0488 14.707 24.7754 15.6738 25.2344 16.6211C25.3711 16.9043 25.5371 17.2168 25.6055 17.3145C25.7129 17.4512 25.7031 17.5293 25.5664 17.7539C25.1855 18.3496 25 18.8184 25 19.2188C25 19.9707 25.4101 20.6543 26.1523 21.1133L26.4648 21.3086L26.4062 22.0605C26.3672 22.5488 26.3867 22.9492 26.4551 23.1738C26.6211 23.6719 27.2754 24.2969 27.7734 24.4238C28.6328 24.6387 28.6621 24.6582 28.7402 24.9512C28.7891 25.1172 28.916 25.4688 29.0137 25.7324C29.1894 26.2012 29.1992 26.5527 29.1797 33.1055L29.1504 39.9902H16.3574H3.56444L3.09569 39.7559C2.84179 39.6289 2.48046 39.3457 2.29491 39.1309C1.61132 38.3398 1.65038 39.5117 1.67968 22.3145L1.70897 6.78711L1.92382 6.39649C2.23632 5.82032 2.7539 5.3711 3.33983 5.16602C3.83788 4.99024 4.74608 4.99024 24.9609 4.98047C43.7793 4.98047 46.1133 5 46.5723 5.13672ZM34.5996 8.61328C34.9902 8.85742 35.2246 8.93555 35.7031 8.96484C36.2695 9.00391 36.3769 8.97461 36.9531 8.65234C37.4805 8.35938 37.6269 8.31055 37.793 8.39844C37.9004 8.45703 37.9883 8.54492 37.9883 8.60352C37.9883 8.65234 38.1641 8.88672 38.3887 9.13086C38.9453 9.72656 39.5215 9.89258 40.5078 9.7168C40.9961 9.63867 41.2109 9.76562 41.2109 10.1465C41.2109 10.4395 41.5332 11.1914 41.7773 11.4648C41.9922 11.709 42.8516 12.1094 43.1641 12.1094C43.5937 12.1094 43.6523 12.2656 43.5937 13.1348C43.5351 13.8184 43.5547 13.9746 43.7305 14.3164C43.9355 14.707 44.541 15.332 44.7363 15.332C44.7851 15.332 44.8828 15.4395 44.9414 15.5762C45.0293 15.7812 45.0098 15.8691 44.7949 16.1816C44.4531 16.6797 44.3359 17.0215 44.3359 17.5098C44.3359 17.9199 44.707 18.8574 44.9121 18.9844C45.1465 19.1309 45 19.4238 44.5117 19.7852C44.1992 20.0195 43.9062 20.3418 43.7695 20.6055C43.5644 20.9961 43.5449 21.1426 43.5937 21.8457C43.6523 22.7637 43.6426 22.7734 42.8809 22.9492C42.0215 23.1543 41.3867 23.8281 41.25 24.6973C41.2109 24.9219 41.1328 25.1367 41.0742 25.1758C41.0156 25.2148 40.5664 25.2441 40.0781 25.2441C39.2773 25.2441 39.1601 25.2734 38.7988 25.5078C38.5742 25.6543 38.2519 25.9766 38.0859 26.2207C37.7344 26.7285 37.5293 26.7676 37.0801 26.4258C36.3574 25.8789 35.4004 25.8594 34.6484 26.3672C34.4141 26.5234 34.1601 26.6602 34.0723 26.6602C33.9844 26.6602 33.7402 26.4355 33.5351 26.1523C32.9883 25.4297 32.5781 25.2441 31.5039 25.2441C30.5371 25.2441 30.5664 25.2637 30.3613 24.4629C30.1758 23.7402 29.5117 23.1055 28.7695 22.9395C28.4668 22.8711 28.1836 22.7734 28.1445 22.7148C28.1055 22.6562 28.0762 22.207 28.0762 21.7188C28.0762 20.9277 28.0469 20.8008 27.8125 20.4395C27.666 20.2148 27.3633 19.9121 27.1289 19.7559C26.8945 19.5996 26.6992 19.4043 26.6797 19.3164C26.6601 19.2383 26.7871 18.9551 26.9433 18.6914C27.4609 17.8809 27.4609 17.0605 26.9433 16.2695C26.6016 15.7617 26.6308 15.498 27.041 15.2832C27.4219 15.0879 27.8906 14.5312 28.0273 14.1016C28.1055 13.8672 28.125 13.5059 28.0859 13.0566C28.0176 12.2949 28.0957 12.1094 28.5058 12.1094C28.6523 12.1094 29.0039 11.9922 29.2871 11.8555C29.8828 11.5527 30.3125 10.9766 30.4199 10.3223C30.5273 9.7168 30.6152 9.63867 31.1914 9.72656C32.2266 9.87305 32.832 9.67773 33.3789 9.01367C33.8867 8.4082 33.9844 8.30078 34.0527 8.30078C34.082 8.30078 34.3359 8.4375 34.5996 8.61328ZM32.2656 27.2168C32.6855 27.8906 33.3496 28.3203 33.9355 28.3203H34.1797V33.0469V37.7832L34.4043 38.0371C34.6777 38.3691 35.1562 38.3887 35.5469 38.0957L35.8398 37.8809V40.8398V43.7891L34.7754 42.7441C33.8086 41.7871 33.6914 41.6992 33.3496 41.6992C33.0078 41.6992 32.8906 41.7871 31.9238 42.7441L30.8594 43.7891V35.3809V26.9629L31.2305 26.9238C32.0215 26.8457 32.0215 26.8457 32.2656 27.2168ZM40.6055 26.9531H40.8203V31.2207V35.498L39.7461 34.4238C38.3105 32.9883 38.3496 32.9883 36.9141 34.4238L35.8398 35.498V31.5625C35.8398 29.4043 35.8594 27.6367 35.8887 27.6367C35.9082 27.6367 36.1328 27.7734 36.3672 27.9492C37.3828 28.6621 38.7109 28.3496 39.4238 27.2168C39.6484 26.8555 39.6875 26.8359 40.0195 26.8945C40.2246 26.9238 40.4785 26.9531 40.6055 26.9531Z" fill="black" fill-opacity="0.4"/>
<path d="M8.52537 10.0586C6.88475 10.3027 5.4492 11.6895 5.08787 13.3594C5.00975 13.7207 4.98045 16.4941 4.98045 22.5391C4.98045 31.9336 4.97068 31.7285 5.51756 32.8027C5.84959 33.4668 6.65037 34.2188 7.41209 34.5996L8.05662 34.9121L16.6894 34.9414L25.3222 34.9609L25.5566 34.7461C25.9179 34.4043 25.8398 33.6426 25.4199 33.4375C25.3222 33.3887 21.4453 33.3301 16.7969 33.3008L8.34959 33.252L7.99803 33.0371C7.50975 32.7344 7.14842 32.3535 6.89451 31.8848L6.68943 31.4941V22.5098V13.5254L6.9824 12.998C7.2949 12.4414 7.6367 12.1191 8.2617 11.8457C8.61326 11.6797 9.23826 11.6699 16.6308 11.6211L24.6289 11.5723L24.8144 11.3379C25.0683 11.0254 25.0488 10.6152 24.7656 10.2832L24.5312 10.0098L16.7773 10C12.5195 9.99023 8.80857 10.0195 8.52537 10.0586Z" fill="black" fill-opacity="0.4"/>
<path d="M9.42381 15.2832C9.11131 15.5859 9.11131 16.0156 9.41405 16.377L9.64842 16.6504H15.8008H21.9531L22.207 16.416C22.539 16.1035 22.5586 15.5566 22.2363 15.2539L22.0117 15.0391H15.8301H9.65819L9.42381 15.2832Z" fill="black" fill-opacity="0.4"/>
<path d="M9.42383 18.6035C9.08203 18.9355 9.10156 19.3652 9.46289 19.7363L9.74609 20.0195H15.7715C22.1289 20.0195 22.2363 20.0098 22.4023 19.5801C22.5293 19.2383 22.4609 18.8379 22.2168 18.6035L21.9824 18.3594H15.8203H9.6582L9.42383 18.6035Z" fill="black" fill-opacity="0.4"/>
<path d="M9.4238 21.9238C8.97459 22.3633 9.18943 23.1445 9.7949 23.291C9.91209 23.3203 12.7246 23.3301 16.0449 23.3203L22.0898 23.291L22.2754 23.0566C22.539 22.7344 22.5195 22.2168 22.2168 21.9238L21.9824 21.6797H15.8203H9.65818L9.4238 21.9238Z" fill="black" fill-opacity="0.4"/>
<path d="M12.2852 26.8164C12.0117 26.9629 11.9727 27.0508 11.8652 27.8125C11.748 28.7207 11.2695 29.2773 10.0879 29.8633C9.42383 30.2051 9.17969 30.4785 9.17969 30.8887C9.17969 31.2695 9.57031 31.6406 9.9707 31.6406C10.5273 31.6406 11.6992 30.9766 12.4219 30.2637L13.0762 29.6094L13.291 29.8438C14.1797 30.791 15.5957 31.0938 16.4355 30.5273C16.7578 30.3027 16.7676 30.3027 17.0996 30.4688C17.9102 30.8887 20.7422 31.4453 22.0508 31.4453C22.7148 31.4453 22.793 31.4258 23.0566 31.1621C23.418 30.791 23.4277 30.4395 23.0664 30.0879C22.8223 29.834 22.7344 29.8145 21.6797 29.7559C20.9473 29.7168 20.127 29.5898 19.3359 29.3945C17.8223 29.0234 17.5977 28.9355 17.4023 28.623C17.0703 28.0859 16.875 27.9297 16.5039 27.9297C16.0645 27.9297 15.7422 28.2422 15.6543 28.75C15.625 28.9551 15.5371 29.1406 15.4687 29.1699C15.0684 29.3262 14.0039 28.3691 13.623 27.4902C13.2715 26.709 12.8613 26.4941 12.2852 26.8164Z" fill="black" fill-opacity="0.4"/>
<path d="M34.375 10.9961C33.4765 11.1816 32.0996 11.9043 31.3769 12.5488C30.6152 13.2324 29.9511 14.2188 29.5703 15.2539C29.3261 15.9277 29.2676 16.25 29.2285 17.1875C29.1699 18.5645 29.3261 19.3262 29.9023 20.5078C30.2343 21.1719 30.4785 21.5039 31.1523 22.168C32.5097 23.5254 33.9355 24.1211 35.8301 24.1211C37.0019 24.1211 37.8125 23.9355 38.8379 23.4277C41.9922 21.8652 43.3789 17.8711 41.8554 14.6973C41.1523 13.2129 40.1758 12.2266 38.7207 11.5234C37.3535 10.8691 35.8301 10.6836 34.375 10.9961ZM36.8359 12.6074C37.7051 12.7832 38.6914 13.3203 39.3261 13.9551C41.3183 15.9375 41.3086 19.0918 39.3164 21.0449C38.3105 22.0312 37.2461 22.4609 35.8398 22.4609C34.4043 22.4609 33.3691 22.0312 32.3144 20.9961C31.3476 20.0391 30.8593 18.8867 30.8593 17.5293C30.8593 14.3652 33.7695 11.9727 36.8359 12.6074Z" fill="black" fill-opacity="0.4"/>
</svg>
