<svg width="60" height="52" viewBox="0 0 60 52" fill="none" xmlns="http://www.w3.org/2000/svg">
<path d="M1.40916 32.6224C4.36224 31.3584 7.50165 30.6805 10.6599 30.5963C13.4573 30.5226 16.264 30.9189 18.9673 31.7831C17.3924 29.4165 15.8019 26.9839 14.1835 24.6548C11.9544 21.4452 9.55591 17.9903 9.10805 14.092H1.40927L1.40916 32.6224ZM22.7253 31.5164C27.4819 29.7011 32.7599 29.8895 37.3943 32.0512V14.0889H32.408C31.8735 18.7307 28.6215 22.6625 26.0727 26.4836L22.7253 31.5164ZM38.7925 33.1831V33.1936H38.7959V43.4982H38.9717C39.7756 39.5631 43.221 36.6795 47.2498 36.6795C51.1965 36.6795 54.5845 39.4387 55.4809 43.2599H58.5936V37.1631L57.1087 34.4683C57.0325 34.3544 56.989 34.216 56.989 34.0724V28.5803L48.5313 18.877L38.7917 18.8368L38.7925 33.1831ZM37.3913 33.623C34.8906 32.3426 32.1589 31.7035 29.4258 31.7035C26.5723 31.7035 23.7222 32.3997 21.1348 33.7936C20.9322 33.9215 20.6731 33.9418 20.4505 33.8305C17.3249 32.5297 13.9993 31.925 10.6946 32.0118C7.52214 32.0961 4.36302 32.8181 1.40994 34.1731V43.4957H3.58624C4.39023 39.5606 7.83554 36.677 11.8681 36.677C15.8969 36.677 19.3422 39.5607 20.1462 43.4957H37.3931L37.3922 33.6231L37.3913 33.623ZM20.7584 6.50837C24.1894 6.50837 26.974 9.32433 26.974 12.797C26.974 16.2684 24.1907 19.0856 20.7584 19.0856C17.3273 19.0856 14.5428 16.2697 14.5428 12.797C14.5428 9.32433 17.3272 6.50837 20.7584 6.50837ZM24.1569 9.35393C22.2794 7.45439 19.2375 7.45439 17.3566 9.35393C15.4791 11.2556 15.4791 14.3349 17.3566 16.2366C19.2362 18.1361 22.2797 18.1361 24.1569 16.2366C26.0365 14.3349 26.0365 11.2568 24.1569 9.35393ZM20.7584 0.932373C27.1861 0.932373 32.4156 6.17167 32.4809 12.6658H38.0955V12.6692C38.4809 12.6692 38.7927 12.9881 38.7927 13.3781V17.4178L48.8579 17.4618C49.0642 17.4618 49.253 17.5554 49.3794 17.7036L49.3827 17.7002L58.2187 27.8434C58.3384 27.9772 58.3945 28.1458 58.3945 28.3105V33.8903L59.9096 36.6397C59.9694 36.7477 60 36.865 60 36.9823V43.9729C60 44.3667 59.6882 44.6856 59.2994 44.6856H54.9082C54.5391 44.6856 54.2402 44.3997 54.2076 44.0406C53.9251 42.3498 53.0545 40.8606 51.8195 39.7994C49.158 37.5111 45.2289 37.5441 42.6052 39.8705C41.35 40.9863 40.4866 42.5455 40.2601 44.3037C40.2132 44.6627 39.9111 44.9227 39.5662 44.9227V44.9236H19.5529V44.9202C19.2072 44.9202 18.905 44.6619 18.859 44.3011C18.4044 40.7751 15.4207 38.1035 11.8662 38.1035C10.0824 38.1035 8.45846 38.7688 7.21506 39.8676C5.97284 40.9702 5.11484 42.509 4.87591 44.2472C4.85582 44.6233 4.55029 44.9231 4.17529 44.9231L0.704381 44.9235C0.316404 44.9235 0 44.6034 0 44.2108V13.378C0 12.9842 0.315151 12.6653 0.704381 12.6653H9.03188C9.10219 6.17182 14.3275 0.932955 20.7587 0.932955L20.7584 0.932373ZM28.0571 5.41155C24.0245 1.33541 17.4901 1.33541 13.461 5.41155C11.5943 7.30014 10.4375 9.91241 10.4375 12.7956C10.4375 17.5204 14.0025 21.7828 16.6061 25.6922L20.758 31.9228L24.9098 25.6922C27.5139 21.783 31.0751 17.5218 31.0751 12.7956C31.0751 9.9123 29.9233 7.30133 28.0567 5.41155H28.0571ZM11.8667 42.3919C14.3615 42.3919 15.62 45.4602 13.853 47.2484C12.086 49.04 9.05287 47.7629 9.05287 45.2387C9.05287 43.6652 10.3114 42.3919 11.8667 42.3919ZM12.859 44.2309C11.9755 43.3404 10.4579 43.976 10.4579 45.2387C10.4579 46.5027 11.9755 47.1383 12.859 46.244C13.4077 45.6893 13.4077 44.7882 12.859 44.231V44.2309ZM11.8667 39.2631C15.1258 39.2631 17.7696 41.938 17.7696 45.2387C17.7696 48.5361 15.1258 51.2111 11.8667 51.2111C8.60426 51.2111 5.96039 48.5361 5.96039 45.2387C5.96039 41.938 8.60426 39.2631 11.8667 39.2631ZM15.0445 42.0184C13.2867 40.24 10.4403 40.24 8.68376 42.0184C6.92597 43.7969 6.92597 46.6806 8.68376 48.454C10.4416 50.2324 13.288 50.2324 15.0445 48.454C16.8023 46.6806 16.8023 43.7969 15.0445 42.0184ZM47.2507 42.3919C49.7493 42.3919 51.0078 45.4602 49.2404 47.2485C47.4734 49.04 44.4403 47.7629 44.4403 45.2388C44.4407 43.6652 45.7005 42.3919 47.2506 42.3919H47.2507ZM48.2481 44.231C47.3646 43.3405 45.847 43.976 45.847 45.2388C45.847 46.5027 47.3646 47.1383 48.2481 46.244C48.7951 45.6893 48.7951 44.7882 48.2481 44.231V44.231ZM40.9096 20.2004H47.5099C47.7417 20.2004 47.9447 20.3143 48.0749 20.4862L55.4388 28.7298C55.5585 28.8675 55.618 29.0356 55.618 29.2075H55.6213V31.1841C55.6213 31.5779 55.3062 31.8968 54.9169 31.8968H40.9101C40.5209 31.8968 40.2057 31.5779 40.2057 31.1841V20.913C40.2057 20.5196 40.5213 20.2003 40.9101 20.2003L40.9096 20.2004ZM47.2014 21.6256H41.6141V30.4718H54.2174V29.4771L47.2014 21.6256ZM47.2508 39.2638C50.5132 39.2638 53.1571 41.9387 53.1571 45.2394C53.1571 48.5368 50.5132 51.2117 47.2508 51.2117C43.9917 51.2117 41.3478 48.5368 41.3478 45.2394C41.3478 41.9387 43.993 39.2638 47.2508 39.2638ZM50.4337 42.0191C48.6759 40.2407 45.8294 40.2407 44.0729 42.0191C42.3151 43.7976 42.3151 46.6813 44.0729 48.4546C45.8307 50.2331 48.6772 50.2331 50.4337 48.4546C52.1903 46.6813 52.1903 43.7976 50.4337 42.0191Z" fill="white"/>
</svg>
