<svg width="60" height="61" viewBox="0 0 60 61" fill="none" xmlns="http://www.w3.org/2000/svg">
<path d="M36.2494 35.658H31.2497C29.4634 35.658 27.8128 36.6222 26.9196 38.1872C26.0261 39.7523 26.0261 41.6807 26.9196 43.2461C27.8128 44.8112 29.4634 45.7753 31.2497 45.7753H36.2499H36.2494C36.5809 45.7753 36.899 45.6419 37.1334 45.4048C37.3677 45.1677 37.4996 44.8459 37.4996 44.5105V36.9224C37.4996 36.587 37.3677 36.2656 37.1334 36.0281C36.899 35.7909 36.5809 35.658 36.2494 35.658L36.2494 35.658ZM34.9993 43.2461H31.2497C30.3566 43.2461 29.5313 42.7638 29.0847 41.9813C28.6381 41.1987 28.6381 40.2346 29.0847 39.452C29.5313 38.6695 30.3566 38.1872 31.2497 38.1872H34.9997L34.9993 43.2461Z" fill="white"/>
<path d="M56.2498 0.246283H16.2501C15.2553 0.246283 14.3014 0.646015 13.5984 1.3574C12.8952 2.06921 12.5001 3.03427 12.5001 4.04035V12.8933H8.75014C7.7553 12.8933 6.80143 13.293 6.09836 14.0044C5.39529 14.7158 5.00014 15.6809 5.00014 16.6874V20.4814H3.75C2.75559 20.4814 1.80171 20.8812 1.09821 21.5925C0.395089 22.3039 0 23.269 0 24.2755V57.157C0 58.1631 0.395089 59.1282 1.09821 59.8399C1.80176 60.5513 2.75561 60.9511 3.75 60.9511H33.75C34.7444 60.9511 35.6983 60.5513 36.4018 59.8399C37.1049 59.1281 37.5 58.1631 37.5 57.157H41.25C42.2444 57.157 43.1983 56.7573 43.9018 56.0459C44.6049 55.3341 45 54.369 45 53.3629V38.1867H47.4999C48.4947 38.1867 49.4486 37.787 50.1516 37.0756C50.8548 36.3638 51.2499 35.3987 51.2499 34.3926V33.1278C52.2447 33.1278 53.1986 32.7281 53.9016 32.0167C54.6047 31.3053 54.9999 30.3402 54.9999 29.3337V28.0693H56.25C57.2444 28.0693 58.1983 27.6696 58.9018 26.9578C59.6049 26.2464 60 25.2813 60 24.2753V4.03991C60 3.03381 59.6049 2.06873 58.9018 1.35697C58.1982 0.645581 57.2444 0.24585 56.25 0.24585L56.2498 0.246283ZM57.4999 24.2757C57.4999 24.6111 57.3681 24.9325 57.1337 25.17C56.8993 25.4072 56.5813 25.5401 56.2498 25.5401H39.9994V28.0693L52.4998 28.0698V29.3346V29.3342C52.4998 29.6696 52.3679 29.9914 52.1336 30.2285C51.8992 30.4656 51.5811 30.599 51.2496 30.599H39.9996V33.1282H48.7498V34.3931C48.7498 34.7284 48.6179 35.0503 48.3836 35.2874C48.1492 35.5245 47.8311 35.6579 47.4996 35.6579H39.9996V38.1871H42.4995L42.4999 53.3634C42.4999 53.6988 42.3681 54.0206 42.1337 54.2577C41.8993 54.4948 41.5813 54.6282 41.2498 54.6282H37.4998V48.3045H34.9999V57.1574C34.9999 57.4928 34.8681 57.8146 34.6337 58.0518C34.3993 58.2889 34.0813 58.4223 33.7498 58.4223H3.74978C3.05963 58.4223 2.49963 57.8557 2.49963 57.1574V24.2759C2.49963 23.5773 3.05963 23.0111 3.74978 23.0111H33.7498C34.0813 23.0111 34.3993 23.1445 34.6337 23.3816C34.8681 23.6187 34.9999 23.9406 34.9999 24.2759V33.1289H37.4998V24.2759C37.4998 23.2694 37.1047 22.3043 36.4016 21.593C35.698 20.8816 34.7442 20.4819 33.7498 20.4819H7.49978V16.6878C7.49978 15.9891 8.05935 15.423 8.74992 15.423H12.4999V17.9522H14.9998V4.04101C14.9998 3.34275 15.5594 2.77617 16.2499 2.77617H56.2496C56.581 2.77617 56.8991 2.90956 57.1335 3.14669C57.3679 3.38382 57.4997 3.70563 57.4997 4.04101L57.4999 24.2757Z" fill="white"/>
<path d="M53.7501 7.83442C53.0596 7.83442 52.5 7.26827 52.5 6.56958C52.5 6.23421 52.3682 5.91282 52.1338 5.67527C51.8994 5.43814 51.5813 5.30518 51.2499 5.30518H21.2498C20.5597 5.30518 20.0001 5.87133 20.0001 6.56957C20.0001 6.90495 19.8683 7.22676 19.6339 7.46389C19.3995 7.70102 19.0815 7.83441 18.75 7.83441C18.0598 7.83441 17.4998 8.40056 17.4998 9.09924V17.9522H19.9997L20.0001 10.1477C21.0669 9.76363 21.9065 8.9142 22.2861 7.83441H50.214C50.5936 8.91419 51.4332 9.76363 52.5004 10.1477V18.1681C51.4332 18.5522 50.5936 19.4016 50.214 20.4814H40.0003V23.0107H51.2503C51.5817 23.0107 51.8998 22.8773 52.1342 22.6401C52.3686 22.403 52.5004 22.0812 52.5004 21.7458C52.5004 21.0476 53.06 20.4814 53.7506 20.4814C54.082 20.4814 54.3997 20.348 54.6345 20.1109C54.8689 19.8738 55.0003 19.552 55.0003 19.2166V9.09924C55.0003 8.76386 54.8689 8.44205 54.6345 8.20492C54.3997 7.96779 54.082 7.83441 53.7506 7.83441L53.7501 7.83442Z" fill="white"/>
<path d="M35.0002 10.3638C34.0053 10.3638 33.0514 10.7635 32.3484 11.4753C31.6452 12.1867 31.2502 13.1518 31.2502 14.1578C31.2502 15.1644 31.6452 16.1294 32.3484 16.8408C33.0515 17.5521 34.0053 17.9519 35.0002 17.9519C35.9946 17.9519 36.9484 17.5522 37.6515 16.8408C38.355 16.1294 38.7502 15.1643 38.7502 14.1578C38.7502 13.1517 38.3551 12.1867 37.6515 11.4753C36.9484 10.7635 35.9945 10.3638 35.0002 10.3638ZM35.0002 15.4227C34.4946 15.4227 34.0388 15.1144 33.845 14.6418C33.6517 14.1693 33.7588 13.6256 34.1162 13.2635C34.4737 12.9019 35.0115 12.7939 35.4786 12.9895C35.9456 13.1852 36.2499 13.6463 36.2499 14.1578C36.2499 14.4932 36.1185 14.815 35.8841 15.0521C35.6493 15.2892 35.3317 15.4226 35.0002 15.4226L35.0002 15.4227Z" fill="white"/>
<path d="M7.4998 52.0981V49.5688H4.99994V52.0981C4.99994 53.1046 5.39503 54.0697 6.09815 54.781C6.80128 55.4924 7.75512 55.8921 8.74994 55.8921H11.2498V53.3629H8.74994C8.05937 53.3629 7.4998 52.7968 7.4998 52.0981Z" fill="white"/>
<path d="M13.7494 53.3633H16.2493V55.8925H13.7494V53.3633Z" fill="white"/>
</svg>
