<svg width="60" height="76" viewBox="0 0 60 76" fill="none" xmlns="http://www.w3.org/2000/svg">
<path d="M43.3962 40.4927V7.9077C43.7054 5.66975 36.0644 7.05142 35.0282 6.69329C34.7784 5.98136 34.3154 5.36548 33.7042 4.93183C33.093 4.49748 32.3636 4.267 31.6172 4.27133C31.6399 3.35432 31.2957 2.46641 30.6631 1.80957C30.0304 1.15217 29.1627 0.781022 28.2562 0.779785H15.6309C14.7251 0.781644 13.8579 1.15279 13.2266 1.81019C12.5952 2.46758 12.2528 3.35486 12.2767 4.27131C11.5296 4.26573 10.799 4.49561 10.1872 4.92994C9.57543 5.36427 9.11242 5.98017 8.86318 6.6933C8.08543 6.68153 1.70038 6.6933 1.70038 6.6933C1.38131 6.6902 1.07389 6.81722 0.848522 7.04586C0.622544 7.27388 0.496997 7.58429 0.500055 7.90773V64.6678C0.500055 65.0358 0.644583 65.3884 0.901794 65.6486C1.159 65.9094 1.50808 66.0557 1.87185 66.0557C7.06992 66.0389 25.3334 65.9801 26.8181 65.9801C29.8287 72.1321 36.8817 75.4737 40.9941 75.4737C51.3635 75.4737 59.5 68.5341 59.5 57.9638L59.4994 57.9632C59.4945 53.5312 57.8311 49.2652 54.8433 46.024C51.8553 42.7828 47.7652 40.8069 43.3955 40.4934L43.3962 40.4927ZM35.2609 9.12113H40.9948V40.4879H40.9954C40.0199 40.566 39.0522 40.7215 38.1006 40.9514V13.263C38.1287 11.7648 36.2217 12.0578 35.2609 12.0485L35.2609 9.12113ZM14.6777 4.17303C14.6753 3.91651 14.7745 3.66929 14.9539 3.48775C15.1333 3.30621 15.3777 3.20522 15.6312 3.20769H28.2585C28.5285 3.20893 28.7864 3.3248 28.9682 3.52617C29.1507 3.72815 29.2414 3.99769 29.2187 4.27031H14.6777V4.17303ZM12.2637 6.69919C22.5203 6.69919 30.5124 6.69423 30.4184 6.69919C31.3431 6.65148 32.8606 6.59447 32.86 7.92166V13.2985C32.8643 13.6319 32.7357 13.9522 32.5036 14.1889C32.2715 14.425 31.9549 14.5569 31.6254 14.5544H12.2619H12.2626C11.9288 14.5507 11.611 14.4119 11.3789 14.1691C11.1474 13.9268 11.0206 13.6003 11.0279 13.2632V7.92775C11.0292 7.59874 11.1608 7.2846 11.3923 7.05349C11.6244 6.823 11.9374 6.69536 12.2626 6.69908L12.2637 6.69919ZM2.90115 63.548V9.12129H8.62834V12.0495C8.23824 12.0539 6.98893 12.0495 6.98893 12.0495C6.3306 12.0607 5.79964 12.5979 5.78862 13.264V59.4045C5.78862 60.0749 6.32632 60.6189 6.98893 60.6189H25.0872C25.2397 61.6127 25.473 62.5923 25.7859 63.5471L2.90115 63.548ZM24.8859 58.191H8.18921V14.4789H8.81876C9.06925 15.2039 9.53467 15.8328 10.1508 16.2807C10.7668 16.7293 11.5048 16.9746 12.2636 16.9839H31.6255C32.3837 16.974 33.1204 16.728 33.7352 16.2801C34.3507 15.8315 34.8143 15.2032 35.0642 14.479H35.6999V41.728C32.4718 43.0565 29.7135 45.3366 27.7852 48.2729C25.856 51.2093 24.8456 54.6654 24.8848 58.1909L24.8859 58.191ZM57.0548 59.1229C56.8025 62.9236 55.1227 66.482 52.3602 69.07C49.5976 71.658 45.9618 73.0788 42.1973 73.0417C38.2454 73.0299 34.459 71.4382 31.6633 68.6134C28.8671 65.7885 27.289 61.9595 27.2717 57.9618C27.4224 50.5123 32.5665 42.8751 42.1973 42.8751C51.8287 42.8751 57.5062 51.0086 57.0561 59.1224L57.0548 59.1229Z" fill="white"/>
<path d="M49.1436 50.1638L40.0408 59.3735L35.2396 54.5158C32.1255 51.6272 28.353 56.0754 31.0281 58.7644C33.381 60.9974 36.0755 63.8786 37.9427 65.7628C38.5018 66.3285 39.2606 66.6451 40.0512 66.6439C40.8424 66.6427 41.5999 66.323 42.1573 65.7554C45.1575 62.7045 50.614 57.167 53.3521 54.4204C56.2084 51.5554 51.7169 47.4238 49.1436 50.1637V50.1638ZM51.6545 52.703L41.3452 63.1253C40.9147 63.4494 40.2606 64.652 39.6348 64.0368L32.7318 57.0514C32.2045 56.5235 33.0171 55.6913 33.5401 56.2316C36.0094 58.7757 38.0799 60.8335 39.203 61.94C39.4247 62.1692 39.7273 62.2987 40.0439 62.3006C40.3611 62.3024 40.6649 62.176 40.889 61.9499C42.4255 60.4139 45.92 56.8598 50.8418 51.8808C51.3636 51.3529 52.1934 52.1739 51.6551 52.703L51.6545 52.703Z" fill="white"/>
<path d="M30.8337 23.4001H13.0568C11.5044 23.3771 11.4958 25.8525 13.0568 25.8288H30.8337C32.3861 25.8524 32.3947 23.3764 30.8337 23.4001Z" fill="white"/>
<path d="M30.8337 30.124H13.0568C11.5044 30.1004 11.4958 32.5757 13.0568 32.5527H30.8337C32.3861 32.5725 32.3947 30.0997 30.8337 30.124Z" fill="white"/>
<path d="M30.8337 36.8477H13.0568C12.3942 36.8477 11.8565 37.3917 11.8565 38.0621C11.8565 38.7331 12.3942 39.2765 13.0568 39.2765H30.8337C31.4969 39.2765 32.034 38.7331 32.034 38.0621C32.034 37.3917 31.4969 36.8477 30.8337 36.8477Z" fill="white"/>
<path d="M24.3807 43.5715H13.0579C11.5036 43.5479 11.4981 46.0232 13.0579 46.0002H24.3807C25.9344 46.0231 25.9399 43.5478 24.3807 43.5715Z" fill="white"/>
<path d="M20.8157 50.2953H13.0578C11.5028 50.2724 11.4986 52.7477 13.0578 52.7241H20.8157C22.3706 52.747 22.3749 50.2717 20.8157 50.2953Z" fill="white"/>
</svg>
