<svg width="61" height="35" viewBox="0 0 61 35" fill="none" xmlns="http://www.w3.org/2000/svg">
<path d="M60.9023 23.6211C60.7215 22.3593 60.3662 19.836 59.9173 16.6061H59.9169C59.7791 15.5969 59.324 14.6595 58.6188 13.932C57.9135 13.205 56.9958 12.7267 56.0013 12.5684L45.5821 10.8651L39.8648 2.17849C39.1258 1.05984 37.8836 0.38772 36.5537 0.386963H21.3028C20.454 0.386963 19.6397 0.727867 19.0389 1.33449C18.4381 1.94112 18.0995 2.76449 18.0978 3.62327V12.1144H3.66353C2.94287 12.116 2.25228 12.4063 1.74285 12.9216C1.23346 13.4374 0.946614 14.1358 0.944946 14.8649V23.8227C0.946616 25.05 1.42803 26.2265 2.28437 27.0954C3.14073 27.9639 4.30232 28.4548 5.5153 28.4594C5.72448 30.8044 7.08314 32.8862 9.13241 34.0014C11.1817 35.117 13.6472 35.117 15.6965 34.0014C17.7457 32.8862 19.1044 30.8044 19.3136 28.4594H42.8954C43.1045 30.8044 44.4636 32.8862 46.5125 34.0014C48.5618 35.117 51.0277 35.117 53.0769 34.0014C55.1258 32.8862 56.4849 30.8044 56.6941 28.4594C57.9191 28.4776 59.0907 27.9521 59.9003 27.0214C60.7099 26.0908 61.0761 24.8484 60.9028 23.6213L60.9023 23.6211ZM55.8017 13.8302C56.5424 13.9337 57.2284 14.2818 57.7532 14.8208C58.3674 15.4849 58.7299 16.3475 58.7758 17.2558L54.3487 15.8111H54.3491C53.7792 15.64 53.4455 15.0431 53.5946 14.461L53.8376 13.4958L55.8017 13.8302ZM19.3451 3.62319C19.3468 3.09894 19.5539 2.59666 19.9209 2.22661C20.2879 1.85655 20.7848 1.64871 21.303 1.64871H36.5539C37.4683 1.64744 38.3225 2.10917 38.8298 2.87885L44.6971 11.7928C44.7935 11.9415 44.9472 12.0425 45.1209 12.0703L52.6031 13.2941L52.3847 14.1394H52.3851C52.2331 14.7295 52.31 15.356 52.5997 15.8908C52.8895 16.4256 53.3705 16.8278 53.9438 17.0157L58.932 18.6497L59.4247 22.1699H53.9003C52.3521 21.0111 50.3968 20.557 48.5041 20.9161C46.6114 21.2751 44.9522 22.4148 43.9237 24.0624H41.8102C41.8282 24.0371 41.8432 24.0096 41.8536 23.9805C42.814 21.943 43.7242 21.8923 43.7242 20.353C43.7242 12.1522 43.7739 12.6063 43.6181 12.3663L38.0754 4.01426C37.6232 3.31682 36.8545 2.89691 36.0303 2.89778H30.4187C29.994 2.89905 29.5873 3.07056 29.2871 3.37429C28.9869 3.67801 28.8178 4.08948 28.8162 4.51867C28.8162 24.825 28.7665 23.6332 28.9159 24.0745L18.2722 24.0749C17.2242 22.3965 15.5215 21.2467 13.587 20.9108C11.653 20.5754 9.66891 21.0857 8.12779 22.3145C7.5541 22.1063 7.69774 22.157 2.19172 22.157V17.2364H17.1562C17.7265 17.2414 18.2756 17.0192 18.6852 16.6179C19.0948 16.2166 19.332 15.6683 19.3449 15.0917L19.3451 3.62319ZM42.8949 27.1977H19.3131C19.2584 26.5648 19.1177 25.943 18.8955 25.349H43.3121C43.09 25.943 42.9493 26.5648 42.8942 27.1977H42.8949ZM30.0629 23.4755V13.2812C30.4432 13.4138 29.6825 13.3758 41.2306 13.3758C41.6765 13.3724 42.102 13.1857 42.4088 12.8583C42.4836 12.9719 42.4585 12.4105 42.4585 20.3781C42.4585 21.3371 41.7166 21.3624 40.7312 23.4565H40.7316C40.5633 23.8375 40.1905 24.0842 39.778 24.0876H30.6682C30.3383 24.0775 30.0732 23.8092 30.0631 23.4755L30.0629 23.4755ZM41.2306 12.1203H30.6307C30.3142 12.1203 30.057 11.8605 30.057 11.5399V4.5185C30.0603 4.32165 30.2177 4.16238 30.4127 4.15901H36.0244C36.4319 4.16027 36.8114 4.36896 37.0344 4.71409L41.5425 11.5336C41.6193 11.6489 41.6264 11.7976 41.5609 11.9197C41.4953 12.0418 41.368 12.1166 41.2306 12.114L41.2306 12.1203ZM2.19161 14.8645C2.19161 14.4695 2.34693 14.091 2.62293 13.8118C2.89892 13.5326 3.27303 13.3758 3.66343 13.3758H18.0977V15.0918C18.0977 15.3376 18.0012 15.5733 17.8292 15.7474C17.6576 15.9214 17.4242 16.019 17.1812 16.019H2.21677L2.19161 14.8645ZM2.19161 23.8223V23.4312L7.02416 23.4316C6.15444 24.5097 5.6283 25.8294 5.51521 27.2167C4.63004 27.2116 3.78286 26.8512 3.15949 26.2151C2.53653 25.5789 2.18831 24.7183 2.19164 23.8223H2.19161ZM12.4111 33.5815C11.0516 33.5794 9.73764 33.0835 8.70841 32.1841C7.6796 31.2851 7.00321 30.0423 6.80279 28.6816C6.60279 27.3209 6.89131 25.9328 7.61657 24.7689C8.34183 23.6055 9.4558 22.7437 10.7556 22.3403C12.0558 21.9369 13.4554 22.0184 14.7008 22.5706C15.9463 23.1227 16.9547 24.1087 17.5426 25.3489C18.3806 27.132 18.2574 29.2244 17.2165 30.8942C16.1756 32.5641 14.3622 33.578 12.4111 33.5814L12.4111 33.5815ZM49.8222 33.5815C47.9521 33.5786 46.2035 32.6446 45.1463 31.0841C44.0886 29.5235 43.8581 27.5368 44.5296 25.771C45.2014 24.0052 46.6886 22.6867 48.5074 22.2457C50.3258 21.8051 52.2422 22.2977 53.6318 23.5638C54.7716 24.614 55.4414 26.0866 55.489 27.6454C55.5362 29.2042 54.9566 30.7157 53.8828 31.8347C52.8088 32.9533 51.3325 33.5836 49.7909 33.5814L49.8222 33.5815ZM56.6936 27.1977C56.5766 25.8112 56.051 24.4927 55.1846 23.4126H59.6238L59.6735 23.7784H59.6739C59.8008 24.6474 59.5424 25.5291 58.9683 26.188C58.3937 26.847 57.5616 27.2162 56.6936 27.1976L56.6936 27.1977Z" fill="white"/>
<path d="M22.6992 13.3757H25.5489C25.9576 13.3592 26.3438 13.1792 26.6219 12.8755C26.9 12.5713 27.0478 12.1683 27.0328 11.7544V4.5184C27.0461 4.10525 26.8979 3.70266 26.6202 3.39932C26.3422 3.09558 25.9572 2.9152 25.5489 2.89746H22.7803C22.3477 2.9152 21.9393 3.10573 21.645 3.4272C21.3506 3.74868 21.1941 4.17534 21.2091 4.613V11.7543C21.1941 12.1692 21.3427 12.5734 21.622 12.8776C21.9014 13.1818 22.2893 13.3609 22.6993 13.3757L22.6992 13.3757ZM22.4562 4.61346C22.4562 4.34859 22.6245 4.15934 22.7806 4.15934H25.5488C25.6611 4.15934 25.7856 4.3169 25.7856 4.51883V11.7544C25.7856 11.9626 25.6607 12.1139 25.5488 12.1139H22.6992C22.5869 12.1139 22.4562 11.9626 22.4562 11.7544L22.4562 4.61346Z" fill="white"/>
<path d="M12.4111 24.7437C11.4976 24.7462 10.6333 25.1627 10.055 25.8783C9.4767 26.5939 9.2454 27.5339 9.42452 28.4404C9.58235 29.205 10.0216 29.8809 10.6529 30.3307C11.2842 30.7811 12.0608 30.972 12.8257 30.8651C13.5906 30.7583 14.2875 30.362 14.7747 29.7558C15.2619 29.1496 15.5037 28.3787 15.4511 27.5993C15.3985 26.8194 15.0553 26.089 14.4912 25.5555C13.9267 25.022 13.1835 24.725 12.4111 24.7246L12.4111 24.7437ZM12.4111 29.6516C11.9335 29.6516 11.475 29.4594 11.1368 29.1176C10.799 28.7755 10.609 28.312 10.609 27.8283C10.609 27.3446 10.799 26.8812 11.1368 26.539C11.475 26.1973 11.9335 26.0051 12.4111 26.0051C12.8892 26.0051 13.3473 26.1973 13.6855 26.539C14.0233 26.8812 14.2132 27.3446 14.2132 27.8283C14.2116 28.3112 14.0212 28.7742 13.6834 29.1155C13.346 29.4572 12.8888 29.6499 12.4112 29.6515L12.4111 29.6516Z" fill="white"/>
<path d="M52.4164 26.2704C51.8657 25.3254 50.8595 24.7489 49.7755 24.7564C48.6915 24.7636 47.6933 25.3542 47.1546 26.3064C46.6164 27.2581 46.6197 28.4283 47.1629 29.3774C47.7061 30.3266 48.7074 30.9118 49.7913 30.913C50.5128 30.9197 51.2126 30.6654 51.7655 30.1965C52.3179 29.7276 52.687 29.0745 52.8064 28.3547C52.9258 27.6353 52.7876 26.8961 52.4164 26.2704ZM49.7913 29.6517C49.3504 29.6517 48.9241 29.4882 48.5943 29.1917C48.2644 28.8955 48.0531 28.4866 48.0014 28.0435C47.9492 27.5999 48.0598 27.1526 48.312 26.7863C48.5642 26.4201 48.9408 26.1602 49.3696 26.0559C49.7988 25.9516 50.251 26.0103 50.6402 26.2207C51.0293 26.431 51.3287 26.7787 51.4811 27.1978C51.682 27.7567 51.6014 28.3798 51.2653 28.8681C50.9291 29.356 50.3797 29.6483 49.7914 29.6517L49.7913 29.6517Z" fill="white"/>
<path d="M33.2865 14.9207H32.0393C31.6953 14.9207 31.416 15.2033 31.416 15.5518C31.416 15.9003 31.6953 16.1825 32.0393 16.1825H33.2865C33.631 16.1825 33.9099 15.9003 33.9099 15.5518C33.9099 15.2033 33.631 14.9207 33.2865 14.9207Z" fill="white"/>
</svg>
