<svg width="19" height="19" viewBox="0 0 19 19" fill="none" xmlns="http://www.w3.org/2000/svg">
<path d="M0.125 0.125V18.875H18.875V0.125H0.125ZM15.75 2.20833C16.325 2.20833 16.7917 2.675 16.7917 3.25C16.7917 3.825 16.325 4.29167 15.75 4.29167C15.175 4.29167 14.7083 3.825 14.7083 3.25C14.7083 2.675 15.175 2.20833 15.75 2.20833ZM9.5 4.29167C12.376 4.29167 14.7083 6.62396 14.7083 9.5C14.7083 12.376 12.376 14.7083 9.5 14.7083C6.62396 14.7083 4.29167 12.376 4.29167 9.5C4.29167 6.62396 6.62396 4.29167 9.5 4.29167ZM9.5 6.375C8.6712 6.375 7.87634 6.70424 7.29029 7.29029C6.70424 7.87634 6.375 8.6712 6.375 9.5C6.375 10.3288 6.70424 11.1237 7.29029 11.7097C7.87634 12.2958 8.6712 12.625 9.5 12.625C10.3288 12.625 11.1237 12.2958 11.7097 11.7097C12.2958 11.1237 12.625 10.3288 12.625 9.5C12.625 8.6712 12.2958 7.87634 11.7097 7.29029C11.1237 6.70424 10.3288 6.375 9.5 6.375Z" fill="white"/>
</svg>
