<svg width="144" height="110" viewBox="0 0 144 110" fill="none" xmlns="http://www.w3.org/2000/svg">
<path d="M36.6236 50H32.6861L39.8551 29.6364H44.4091L51.5881 50H47.6506L42.2116 33.8125H42.0526L36.6236 50ZM36.7528 42.0156H47.4915V44.9787H36.7528V42.0156ZM59.1106 29.6364V50H55.5112V29.6364H59.1106ZM67.8114 29.6364V50H64.2119V29.6364H67.8114ZM82.1698 40.0369V43H73.0022V40.0369H82.1698ZM90.9551 41.0511V50H87.3557V29.6364H90.8756V37.3224H91.0545C91.4125 36.4607 91.966 35.7812 92.7151 35.2841C93.4707 34.7803 94.4319 34.5284 95.5986 34.5284C96.6592 34.5284 97.5839 34.7505 98.3727 35.1946C99.1616 35.6387 99.7714 36.2884 100.202 37.1435C100.64 37.9986 100.859 39.0426 100.859 40.2756V50H97.2591V40.8324C97.2591 39.8049 96.9939 39.0062 96.4636 38.4361C95.94 37.8594 95.2042 37.571 94.2562 37.571C93.6199 37.571 93.0498 37.7102 92.546 37.9886C92.0489 38.2604 91.6578 38.6548 91.3727 39.1719C91.0943 39.6889 90.9551 40.3153 90.9551 41.0511ZM105.928 50V34.7273H109.527V50H105.928ZM107.737 32.5597C107.167 32.5597 106.677 32.3707 106.266 31.9929C105.855 31.6084 105.649 31.1477 105.649 30.6108C105.649 30.0672 105.855 29.6065 106.266 29.2287C106.677 28.8442 107.167 28.652 107.737 28.652C108.314 28.652 108.804 28.8442 109.209 29.2287C109.62 29.6065 109.825 30.0672 109.825 30.6108C109.825 31.1477 109.62 31.6084 109.209 31.9929C108.804 32.3707 108.314 32.5597 107.737 32.5597ZM114.628 50V34.7273H118.069V37.3224H118.248C118.566 36.4474 119.093 35.7647 119.829 35.2741C120.564 34.777 121.443 34.5284 122.464 34.5284C123.498 34.5284 124.369 34.7803 125.079 35.2841C125.795 35.7812 126.298 36.4607 126.59 37.3224H126.749C127.087 36.474 127.657 35.7978 128.459 35.294C129.268 34.7836 130.226 34.5284 131.333 34.5284C132.738 34.5284 133.885 34.9725 134.773 35.8608C135.661 36.7491 136.106 38.045 136.106 39.7486V50H132.496V40.3054C132.496 39.3575 132.244 38.6648 131.741 38.2273C131.237 37.7831 130.62 37.5611 129.891 37.5611C129.023 37.5611 128.343 37.8329 127.853 38.3764C127.369 38.9134 127.127 39.6127 127.127 40.4744V50H123.597V40.1562C123.597 39.3674 123.358 38.7377 122.881 38.267C122.411 37.7964 121.794 37.5611 121.032 37.5611C120.515 37.5611 120.044 37.6937 119.62 37.9588C119.196 38.2173 118.858 38.5852 118.606 39.0625C118.354 39.5331 118.228 40.0833 118.228 40.7131V50H114.628Z" fill="white"/>
<path d="M78 32.1765V6.47059L74.6471 2H5.35294L2 6.47059V72.4118L5.35294 78H74.6471L78 72.4118V51.1765" stroke="white" stroke-width="3"/>
<path d="M10.3168 9.90909V15H9.70028V10.5554H9.67045L8.42756 11.3807V10.7543L9.70028 9.90909H10.3168ZM13.5011 15.0696C13.1729 15.0696 12.8804 15.0133 12.6236 14.9006C12.3684 14.7879 12.1654 14.6313 12.0146 14.4308C11.8654 14.2286 11.7842 13.9941 11.771 13.7273H12.3974C12.4106 13.8913 12.467 14.033 12.5664 14.1523C12.6658 14.27 12.7959 14.3612 12.9567 14.4258C13.1174 14.4904 13.2956 14.5227 13.4911 14.5227C13.7099 14.5227 13.9038 14.4846 14.0728 14.4084C14.2418 14.3321 14.3744 14.2261 14.4705 14.0902C14.5666 13.9543 14.6147 13.7969 14.6147 13.6179C14.6147 13.4306 14.5683 13.2657 14.4755 13.1232C14.3827 12.979 14.2468 12.8664 14.0678 12.7852C13.8888 12.704 13.6701 12.6634 13.4116 12.6634H13.0039V12.1165H13.4116C13.6138 12.1165 13.7911 12.08 13.9435 12.0071C14.0977 11.9342 14.2178 11.8314 14.304 11.6989C14.3918 11.5663 14.4357 11.4105 14.4357 11.2315C14.4357 11.0592 14.3976 10.9092 14.3214 10.7816C14.2451 10.654 14.1374 10.5546 13.9982 10.4833C13.8607 10.4121 13.6983 10.3764 13.511 10.3764C13.3353 10.3764 13.1696 10.4087 13.0138 10.4734C12.8597 10.5363 12.7338 10.6283 12.636 10.7493C12.5382 10.8686 12.4852 11.0128 12.4769 11.1818H11.8803C11.8903 10.915 11.9706 10.6813 12.1214 10.4808C12.2723 10.2786 12.4695 10.1212 12.7131 10.0085C12.9583 9.89583 13.2276 9.83949 13.521 9.83949C13.8358 9.83949 14.1059 9.90329 14.3313 10.0309C14.5567 10.1568 14.7299 10.3234 14.8509 10.5305C14.9718 10.7377 15.0323 10.9614 15.0323 11.2017C15.0323 11.4884 14.9569 11.7328 14.8061 11.935C14.657 12.1372 14.454 12.2772 14.1971 12.3551V12.3949C14.5186 12.4479 14.7696 12.5846 14.9503 12.805C15.1309 13.0238 15.2212 13.2947 15.2212 13.6179C15.2212 13.8946 15.1458 14.1432 14.995 14.3636C14.8459 14.5824 14.642 14.7547 14.3835 14.8807C14.125 15.0066 13.8308 15.0696 13.5011 15.0696ZM16.5182 15.0398C16.3956 15.0398 16.2903 14.9959 16.2025 14.908C16.1147 14.8202 16.0708 14.715 16.0708 14.5923C16.0708 14.4697 16.1147 14.3645 16.2025 14.2766C16.2903 14.1888 16.3956 14.1449 16.5182 14.1449C16.6408 14.1449 16.7461 14.1888 16.8339 14.2766C16.9217 14.3645 16.9656 14.4697 16.9656 14.5923C16.9656 14.6735 16.9449 14.7481 16.9035 14.8161C16.8637 14.884 16.8099 14.9387 16.7419 14.9801C16.6756 15.0199 16.6011 15.0398 16.5182 15.0398ZM19.4912 15.0696C19.1167 15.0696 18.7977 14.9677 18.5342 14.7638C18.2707 14.5584 18.0693 14.2609 17.9301 13.8714C17.7909 13.4804 17.7213 13.008 17.7213 12.4545C17.7213 11.9044 17.7909 11.4345 17.9301 11.0451C18.071 10.654 18.2732 10.3557 18.5367 10.1502C18.8018 9.94306 19.12 9.83949 19.4912 9.83949C19.8624 9.83949 20.1798 9.94306 20.4433 10.1502C20.7084 10.3557 20.9106 10.654 21.0498 11.0451C21.1907 11.4345 21.2611 11.9044 21.2611 12.4545C21.2611 13.008 21.1915 13.4804 21.0523 13.8714C20.9131 14.2609 20.7117 14.5584 20.4482 14.7638C20.1847 14.9677 19.8657 15.0696 19.4912 15.0696ZM19.4912 14.5227C19.8624 14.5227 20.1508 14.3437 20.3563 13.9858C20.5618 13.6278 20.6645 13.1174 20.6645 12.4545C20.6645 12.0137 20.6173 11.6384 20.5228 11.3285C20.43 11.0186 20.2958 10.7824 20.1201 10.62C19.9461 10.4576 19.7365 10.3764 19.4912 10.3764C19.1233 10.3764 18.8358 10.5579 18.6286 10.9208C18.4215 11.2821 18.3179 11.7933 18.3179 12.4545C18.3179 12.8954 18.3643 13.2699 18.4571 13.5781C18.5499 13.8864 18.6833 14.1209 18.8573 14.2816C19.033 14.4424 19.2443 14.5227 19.4912 14.5227ZM23.8264 9.83949C24.0352 9.84115 24.2441 9.88092 24.4529 9.95881C24.6617 10.0367 24.8522 10.166 25.0246 10.3466C25.1969 10.5256 25.3353 10.77 25.4397 11.0799C25.5441 11.3898 25.5963 11.7784 25.5963 12.2457C25.5963 12.6982 25.5532 13.1 25.4671 13.4513C25.3825 13.801 25.2599 14.096 25.0992 14.3363C24.9401 14.5766 24.7462 14.7589 24.5175 14.8832C24.2905 15.0075 24.0336 15.0696 23.7469 15.0696C23.4619 15.0696 23.2075 15.0133 22.9838 14.9006C22.7617 14.7862 22.5794 14.628 22.4369 14.4258C22.296 14.2219 22.2057 13.9858 22.1659 13.7173H22.7725C22.8271 13.951 22.9357 14.1441 23.0981 14.2965C23.2622 14.4473 23.4784 14.5227 23.7469 14.5227C24.1396 14.5227 24.4495 14.3512 24.6766 14.0082C24.9053 13.6651 25.0196 13.1804 25.0196 12.554H24.9798C24.887 12.6932 24.7768 12.8133 24.6492 12.9144C24.5216 13.0155 24.3799 13.0934 24.2242 13.1481C24.0684 13.2028 23.9027 13.2301 23.727 13.2301C23.4353 13.2301 23.1677 13.158 22.9241 13.0138C22.6821 12.868 22.4883 12.6683 22.3424 12.4148C22.1982 12.1596 22.1262 11.8679 22.1262 11.5398C22.1262 11.2282 22.1958 10.9432 22.335 10.6847C22.4758 10.4245 22.673 10.2173 22.9266 10.0632C23.1818 9.90909 23.4817 9.83452 23.8264 9.83949ZM23.8264 10.3864C23.6176 10.3864 23.4295 10.4386 23.2622 10.543C23.0964 10.6457 22.9647 10.7849 22.8669 10.9606C22.7708 11.1346 22.7227 11.3277 22.7227 11.5398C22.7227 11.7519 22.7691 11.945 22.8619 12.119C22.9564 12.2913 23.0848 12.4289 23.2472 12.5316C23.4113 12.6327 23.5977 12.6832 23.8066 12.6832C23.964 12.6832 24.1106 12.6526 24.2465 12.5913C24.3824 12.5283 24.5009 12.4429 24.602 12.3352C24.7048 12.2259 24.7851 12.1024 24.8431 11.9648C24.9011 11.8256 24.9301 11.6806 24.9301 11.5298C24.9301 11.331 24.8821 11.1445 24.786 10.9705C24.6915 10.7965 24.5606 10.6557 24.3932 10.5479C24.2275 10.4402 24.0386 10.3864 23.8264 10.3864ZM26.8336 15.0398C26.711 15.0398 26.6058 14.9959 26.5179 14.908C26.4301 14.8202 26.3862 14.715 26.3862 14.5923C26.3862 14.4697 26.4301 14.3645 26.5179 14.2766C26.6058 14.1888 26.711 14.1449 26.8336 14.1449C26.9563 14.1449 27.0615 14.1888 27.1493 14.2766C27.2372 14.3645 27.2811 14.4697 27.2811 14.5923C27.2811 14.6735 27.2604 14.7481 27.2189 14.8161C27.1792 14.884 27.1253 14.9387 27.0574 14.9801C26.9911 15.0199 26.9165 15.0398 26.8336 15.0398ZM28.3239 15V14.5526L30.0043 12.7131C30.2015 12.4976 30.3639 12.3104 30.4915 12.1513C30.6191 11.9905 30.7135 11.8397 30.7749 11.6989C30.8378 11.5563 30.8693 11.4072 30.8693 11.2514C30.8693 11.0724 30.8262 10.9175 30.7401 10.7866C30.6555 10.6557 30.5395 10.5546 30.392 10.4833C30.2446 10.4121 30.0788 10.3764 29.8949 10.3764C29.6993 10.3764 29.5286 10.417 29.3828 10.4982C29.2386 10.5778 29.1268 10.6896 29.0472 10.8338C28.9693 10.978 28.9304 11.147 28.9304 11.3409H28.3438C28.3438 11.0426 28.4125 10.7808 28.5501 10.5554C28.6876 10.33 28.8749 10.1544 29.1119 10.0284C29.3505 9.90246 29.6181 9.83949 29.9148 9.83949C30.2131 9.83949 30.4774 9.90246 30.7077 10.0284C30.9381 10.1544 31.1187 10.3242 31.2496 10.538C31.3806 10.7518 31.446 10.9896 31.446 11.2514C31.446 11.4387 31.4121 11.6218 31.3441 11.8008C31.2778 11.9781 31.1618 12.1761 30.9961 12.3949C30.832 12.612 30.6042 12.8771 30.3125 13.1903L29.169 14.4134V14.4531H31.5355V15H28.3239ZM34.2227 15.0696C33.8481 15.0696 33.5291 14.9677 33.2656 14.7638C33.0021 14.5584 32.8008 14.2609 32.6616 13.8714C32.5224 13.4804 32.4528 13.008 32.4528 12.4545C32.4528 11.9044 32.5224 11.4345 32.6616 11.0451C32.8024 10.654 33.0046 10.3557 33.2681 10.1502C33.5333 9.94306 33.8514 9.83949 34.2227 9.83949C34.5939 9.83949 34.9112 9.94306 35.1747 10.1502C35.4399 10.3557 35.642 10.654 35.7812 11.0451C35.9221 11.4345 35.9925 11.9044 35.9925 12.4545C35.9925 13.008 35.9229 13.4804 35.7837 13.8714C35.6445 14.2609 35.4432 14.5584 35.1797 14.7638C34.9162 14.9677 34.5972 15.0696 34.2227 15.0696ZM34.2227 14.5227C34.5939 14.5227 34.8822 14.3437 35.0877 13.9858C35.2932 13.6278 35.396 13.1174 35.396 12.4545C35.396 12.0137 35.3487 11.6384 35.2543 11.3285C35.1615 11.0186 35.0272 10.7824 34.8516 10.62C34.6776 10.4576 34.4679 10.3764 34.2227 10.3764C33.8548 10.3764 33.5672 10.5579 33.3601 10.9208C33.1529 11.2821 33.0494 11.7933 33.0494 12.4545C33.0494 12.8954 33.0958 13.2699 33.1886 13.5781C33.2814 13.8864 33.4148 14.1209 33.5888 14.2816C33.7644 14.4424 33.9757 14.5227 34.2227 14.5227ZM36.9371 15V14.5526L38.6175 12.7131C38.8147 12.4976 38.9772 12.3104 39.1048 12.1513C39.2324 11.9905 39.3268 11.8397 39.3881 11.6989C39.4511 11.5563 39.4826 11.4072 39.4826 11.2514C39.4826 11.0724 39.4395 10.9175 39.3533 10.7866C39.2688 10.6557 39.1528 10.5546 39.0053 10.4833C38.8578 10.4121 38.6921 10.3764 38.5082 10.3764C38.3126 10.3764 38.1419 10.417 37.9961 10.4982C37.8519 10.5778 37.7401 10.6896 37.6605 10.8338C37.5826 10.978 37.5437 11.147 37.5437 11.3409H36.957C36.957 11.0426 37.0258 10.7808 37.1634 10.5554C37.3009 10.33 37.4882 10.1544 37.7251 10.0284C37.9638 9.90246 38.2314 9.83949 38.5281 9.83949C38.8263 9.83949 39.0907 9.90246 39.321 10.0284C39.5514 10.1544 39.732 10.3242 39.8629 10.538C39.9938 10.7518 40.0593 10.9896 40.0593 11.2514C40.0593 11.4387 40.0253 11.6218 39.9574 11.8008C39.8911 11.9781 39.7751 12.1761 39.6094 12.3949C39.4453 12.612 39.2174 12.8771 38.9258 13.1903L37.7823 14.4134V14.4531H40.1488V15H36.9371ZM42.9652 9.90909V15H42.3487V10.5554H42.3189L41.076 11.3807V10.7543L42.3487 9.90909H42.9652Z" fill="white"/>
<path d="M12.3722 70L16.9261 60.9915V60.9119H11.6761V59.8182H18.1989V60.9716L13.6648 70H12.3722ZM18.9931 67.9119V66.8977L23.4675 59.8182H24.2033V61.3892H23.7061L20.3255 66.7386V66.8182H26.351V67.9119H18.9931ZM23.7857 70V67.6037V67.1314V59.8182H24.959V70H23.7857Z" fill="white"/>
<path d="M74.1477 6.34857V12.1667H73.4432V7.0872H73.4091L71.9886 8.03038V7.31448L73.4432 6.34857H74.1477ZM74.1477 14.3486V20.1667H73.4432V15.0872H73.4091L71.9886 16.0304V15.3145L73.4432 14.3486H74.1477ZM74.1477 22.3486V28.1667H73.4432V23.0872H73.4091L71.9886 24.0304V23.3145L73.4432 22.3486H74.1477Z" fill="white"/>
<path d="M7.53041 104H3.57587L9.60144 86.5455H14.3571L20.3742 104H16.4196L12.0475 90.5341H11.9111L7.53041 104ZM7.28325 97.1392H16.6242V100.02H7.28325V97.1392ZM25.9598 104L25.9427 101.119H26.3774C26.6842 101.119 26.9484 101.045 27.17 100.898C27.3973 100.744 27.5848 100.497 27.7325 100.156C27.8802 99.8153 27.9967 99.3636 28.0819 98.8011C28.1672 98.233 28.224 97.5341 28.2524 96.7045L28.4655 90.9091H38.42V104H34.9598V93.7642H31.7297L31.5251 97.7614C31.474 98.858 31.3405 99.8011 31.1246 100.591C30.9143 101.381 30.6217 102.028 30.2467 102.534C29.8717 103.034 29.42 103.403 28.8916 103.642C28.3632 103.881 27.7496 104 27.0507 104H25.9598ZM48.5887 90.9091L50.9921 95.4858L53.4552 90.9091H57.1796L53.387 97.4545L57.2819 104H53.5745L50.9921 99.4744L48.4524 104H44.7024L48.5887 97.4545L44.8387 90.9091H48.5887ZM67.1246 99.2102L71.8377 90.9091H75.4173V104H71.957V95.6733L67.261 104H63.6559V90.9091H67.1246V99.2102ZM90.3864 99.9858L93.9319 90.9091H96.6932L91.5881 104H89.1762L84.1904 90.9091H86.9432L90.3864 99.9858ZM86.1165 90.9091V104H82.6478V90.9091H86.1165ZM94.8353 104V90.9091H98.2614V104H94.8353ZM108.858 99.2102L113.571 90.9091H117.151V104H113.691V95.6733L108.995 104H105.39V90.9091H108.858V99.2102ZM124.382 104V90.9091H128.012V95.9886H129.035L132.597 90.9091H136.859L132.231 97.4034L136.91 104H132.597L129.367 99.3551H128.012V104H124.382Z" fill="white"/>
</svg>
