<svg width="50" height="50" viewBox="0 0 50 50" fill="none" xmlns="http://www.w3.org/2000/svg">
<g clip-path="url(#clip0_233_2)">
<path d="M5.46875 2.86133V4.95117L8.59375 9.11133L11.7187 13.2812H7.26562C4.05273 13.2812 2.69531 13.3105 2.40234 13.3984C1.86523 13.5547 1.05469 14.3652 0.898437 14.9023C0.732422 15.4688 0.732422 37.6367 0.898437 38.2031C1.03516 38.6719 1.64062 39.3848 2.05078 39.5508L2.34375 39.668V41.8555C2.34375 44.0234 2.34375 44.0332 2.09961 44.3945C1.50391 45.2734 1.42578 46.5137 1.89453 47.4512C2.25586 48.1543 2.55859 48.4668 3.24219 48.8379C3.80859 49.1406 3.92578 49.1699 4.6875 49.1699C5.44922 49.1699 5.56641 49.1406 6.13281 48.8379C6.81641 48.4668 7.11914 48.1543 7.48047 47.4512C7.94922 46.5137 7.87109 45.2734 7.27539 44.3945C7.03125 44.0332 7.03125 44.0137 7.03125 41.9434V39.8438H14.0625H21.0937V41.9434C21.0937 44.0137 21.0937 44.0332 20.8496 44.3945C20.2539 45.2734 20.1758 46.5137 20.6445 47.4512C21.0059 48.1543 21.3086 48.4668 21.9922 48.8379C22.5586 49.1406 22.6758 49.1699 23.4375 49.1699C24.1992 49.1699 24.3164 49.1406 24.8828 48.8379C25.5664 48.4668 25.8691 48.1543 26.2305 47.4512C26.6992 46.5137 26.6211 45.2734 26.0254 44.3945C25.7812 44.0332 25.7812 44.0137 25.7812 41.9434V39.8438H34.375H42.9687V41.9434C42.9687 44.0137 42.9687 44.0332 42.7246 44.3945C42.0898 45.3223 42.041 46.543 42.5977 47.5781C42.9394 48.2227 43.2519 48.5254 43.9844 48.9062C44.4043 49.1211 44.6094 49.1602 45.3125 49.1602C46.0742 49.1699 46.1914 49.1406 46.7578 48.8379C47.4414 48.4668 47.7441 48.1543 48.1055 47.4512C48.5742 46.5137 48.4961 45.2734 47.9004 44.3945C47.6562 44.0332 47.6562 44.0234 47.6562 41.8555V39.668L47.9492 39.5508C48.3594 39.3848 48.9648 38.6719 49.1016 38.2031C49.2676 37.6465 49.2676 10.7812 49.1016 10.2344C49.043 10.0195 48.7988 9.62891 48.5644 9.375C47.8223 8.55469 48.3398 8.59375 39.082 8.59375C32.9687 8.59375 30.8301 8.62305 30.5273 8.71094C29.9902 8.86719 29.1797 9.67773 29.0234 10.2148C28.9551 10.4492 28.9062 11.1914 28.9062 11.9531V13.2812H24.2187H19.5312L22.6562 9.11133L25.7812 4.95117V2.86133V0.78125H15.625H5.46875V2.86133ZM24.2187 3.38867V4.42383L20.8984 8.85742L17.5781 13.2812H15.625H13.6719L10.3516 8.85742L7.03125 4.42383V3.38867V2.34375H15.625H24.2187V3.38867ZM47.4121 10.4004C47.6172 10.5957 47.6562 10.7324 47.6562 11.1816V11.7188H39.0625H30.4687V11.1816C30.4687 10.7324 30.5078 10.5957 30.7129 10.4004L30.9473 10.1562H39.0625H47.1777L47.4121 10.4004ZM47.6562 25.5371V37.8027L47.4121 38.0371L47.1777 38.2812H38.8184H30.4687V25.7812V13.2812H39.0625H47.6562V25.5371ZM12.5 15.8496V16.8555L12.041 16.9727C11.3477 17.1582 10.0879 17.7832 9.26758 18.3301C7.90039 19.2578 6.63086 20.7422 6.10352 22.041L5.87891 22.6074L4.11133 22.6367L2.34375 22.6562V18.9941V15.3223L2.58789 15.0879L2.82227 14.8438H7.66602H12.5V15.8496ZM17.1875 15.6445V16.4551H15.625H14.0625V15.6445V14.8438H15.625H17.1875V15.6445ZM28.9062 18.75V22.6562L27.1387 22.6367L25.3711 22.6074L25.1465 22.041C24.6191 20.752 23.2812 19.1797 21.9727 18.3105C21.1914 17.793 19.873 17.1582 19.209 16.9727L18.75 16.8555V15.8496V14.8438H23.8281H28.9062V18.75ZM16.7383 18.0273L17.1875 18.0957V20.3711V22.6562H15.625H14.0625V20.3711V18.0762L14.3848 18.0371C14.9316 17.9688 16.2598 17.9688 16.7383 18.0273ZM12.4707 22.627C12.4512 22.6465 11.3281 22.6465 9.9707 22.6367L7.51953 22.6074L7.88086 21.9727C8.64258 20.6738 10.1855 19.3945 11.8066 18.7305L12.4512 18.4668L12.4805 20.5273C12.4902 21.6602 12.4902 22.6074 12.4707 22.627ZM19.873 18.8965C20.4687 19.1504 21.5332 19.873 22.0898 20.3906C22.5879 20.8594 23.2812 21.7676 23.5742 22.334L23.7402 22.6562H21.2402H18.75V20.5566V18.4668L19.1211 18.6035C19.3164 18.6719 19.6582 18.8086 19.873 18.8965ZM8.59375 25V25.7812H5.46875H2.34375V25V24.2188H5.46875H8.59375V25ZM11.7187 25V25.7812H10.9375H10.1562V25V24.2188H10.9375H11.7187V25ZM17.9687 25V25.7812H15.625H13.2812V25V24.2188H15.625H17.9687V25ZM21.0937 25V25.7812H20.3125H19.5312V25V24.2188H20.3125H21.0937V25ZM28.9062 25V25.7812H25.7812H22.6562V25V24.2188H25.7812H28.9062V25ZM8.59375 28.9062V30.4688H7.8125H7.03125V34.375V38.2812H4.93164C2.82227 38.2812 2.82227 38.2812 2.58789 38.0371L2.34375 37.8027V32.5684V27.3438H5.46875H8.59375V28.9062ZM11.7187 28.9062V30.4688H10.9375H10.1562V28.9062V27.3438H10.9375H11.7187V28.9062ZM17.9687 28.9062V30.4688H15.625H13.2812V28.9062V27.3438H15.625H17.9687V28.9062ZM21.0937 28.9062V30.4688H20.3125H19.5312V28.9062V27.3438H20.3125H21.0937V28.9062ZM28.9062 32.8125V38.2812H26.5625H24.2187V34.375V30.4688H23.4375H22.6562V28.9062V27.3438H25.7812H28.9062V32.8125ZM22.6562 35.1562V38.2812H15.625H8.59375V35.1562V32.0312H15.625H22.6562V35.1562ZM5.46875 41.4258V43.0176H4.6875H3.90625V41.4258V39.8438H4.6875H5.46875V41.4258ZM24.2187 41.4258V43.0176H23.4375H22.6562V41.4258V39.8438H23.4375H24.2187V41.4258ZM46.0937 41.4258V43.0176H45.3125H44.5312V41.4258V39.8438H45.3125H46.0937V41.4258ZM5.30273 44.668C6.30859 45.0879 6.55273 46.3965 5.77148 47.1777C5.13672 47.8125 4.23828 47.8125 3.60352 47.1777C2.39258 45.9766 3.73047 44.0039 5.30273 44.668ZM24.0527 44.668C25.0586 45.0879 25.3027 46.3965 24.5215 47.1777C23.8867 47.8125 22.9883 47.8125 22.3535 47.1777C21.1426 45.9766 22.4805 44.0039 24.0527 44.668ZM45.9277 44.668C46.9336 45.0879 47.1777 46.3965 46.3965 47.1777C45.7617 47.8125 44.8633 47.8125 44.2285 47.1777C43.0176 45.9766 44.3555 44.0039 45.9277 44.668Z" fill="#424242" fill-opacity="0.4"/>
<path d="M32.0312 20.3125V25.7812H39.0625H46.0938V20.3125V14.8438H39.0625H32.0312V20.3125ZM44.5312 17.5781V18.75H41.582H38.623L38.1445 19.4824C37.8809 19.8828 37.6465 20.2148 37.6074 20.2148C37.5781 20.2148 37.2949 19.707 36.9824 19.0918L36.4258 17.9688H35.0098H33.5938V17.1875V16.4062H39.0625H44.5312V17.5781ZM36.3965 21.4355C36.9238 22.4805 37.3828 23.3398 37.4121 23.3398C37.4414 23.3398 37.9199 22.6562 38.4766 21.8262L39.4824 20.3125H42.002H44.5312V22.2656V24.2188H39.0625H33.5938V21.875V19.5312H34.5215H35.4492L36.3965 21.4355Z" fill="#424242" fill-opacity="0.4"/>
<path d="M36.7188 27.4707C36.2402 27.627 35.4199 28.4668 35.2734 28.9648C35 29.8828 35.1953 30.6152 35.8887 31.2988C36.875 32.2949 38.125 32.2949 39.1113 31.2988C40.0684 30.3516 40.0977 29.1309 39.1895 28.125C38.5547 27.4219 37.6465 27.1777 36.7188 27.4707ZM38.0371 29.1504C38.5254 29.6289 38.1836 30.4688 37.5 30.4688C37.0996 30.4688 36.7188 30.0879 36.7188 29.6875C36.7188 29.2871 37.0996 28.9063 37.5 28.9063C37.6855 28.9063 37.8906 28.9941 38.0371 29.1504Z" fill="#424242" fill-opacity="0.4"/>
<path d="M42.9688 27.4707C42.4902 27.627 41.6699 28.4668 41.5234 28.9648C41.25 29.8828 41.4453 30.6152 42.1387 31.2988C43.125 32.2949 44.375 32.2949 45.3613 31.2988C46.3184 30.3516 46.3477 29.1309 45.4395 28.125C44.8047 27.4219 43.8965 27.1777 42.9688 27.4707ZM44.2871 29.1504C44.7754 29.6289 44.4336 30.4688 43.75 30.4688C43.3496 30.4688 42.9688 30.0879 42.9688 29.6875C42.9688 29.2871 43.3496 28.9063 43.75 28.9063C43.9355 28.9063 44.1406 28.9941 44.2871 29.1504Z" fill="#424242" fill-opacity="0.4"/>
</g>
<defs>
<clipPath id="clip0_233_2">
<rect width="50" height="50" fill="white"/>
</clipPath>
</defs>
</svg>
