<svg width="50" height="50" viewBox="0 0 50 50" fill="none" xmlns="http://www.w3.org/2000/svg">
<path d="M18.3203 2.91992C16.5137 4.15039 14.9414 5.23438 14.834 5.33203C14.6777 5.46875 14.6484 5.60547 14.668 5.9961L14.6973 6.47461L18.6035 7.83203C20.752 8.57422 22.6074 9.17969 22.7246 9.17969C22.8418 9.17969 23.0762 9.0625 23.2422 8.92578C23.4766 8.72071 23.5352 8.61328 23.4961 8.40821C23.4668 8.27149 23.4277 7.94922 23.3887 7.70508L23.3301 7.25586L24.1504 7.19727C25.2344 7.11914 27.334 7.27539 28.5449 7.5293C33.2031 8.47656 37.3242 11.2402 39.9707 15.2148C41.9141 18.125 42.9688 21.5625 42.9688 24.9707V26.2402L43.5645 26.3086C44.6777 26.416 44.5703 26.6016 44.502 24.7266C44.4336 22.8809 44.2676 21.7285 43.8379 20.127C41.5918 11.6406 33.7793 5.66406 24.9414 5.66406C24.0723 5.66406 22.3926 5.80078 21.8945 5.91797C21.6699 5.9668 21.6602 5.98633 21.7285 6.64063L21.7969 7.32422L19.4434 6.51367C18.1543 6.07422 17.0898 5.6836 17.0898 5.6543C17.0898 5.54688 21.1816 2.82227 21.2207 2.90039C21.25 2.94922 21.2988 3.26172 21.3379 3.59375L21.4062 4.21875L21.8652 4.16016C22.1094 4.13086 23.2812 4.07227 24.4629 4.04297C26.8457 3.97461 28.0762 4.0918 29.9707 4.55078C33.8965 5.51758 37.6758 7.69531 40.3809 10.5664C44.1602 14.5801 46.1914 19.6484 46.2012 25.0684V26.6602H46.4648C46.6113 26.6602 46.9629 26.6895 47.2559 26.7285L47.7832 26.7871L47.7246 24.8438C47.6562 22.6465 47.4902 21.416 47.0215 19.5703C44.9609 11.5137 38.6328 5.19531 30.6152 3.17383C28.4863 2.63672 27.4512 2.50977 24.9512 2.49024L22.7051 2.48047L22.6367 1.92383C22.5977 1.6211 22.5195 1.2793 22.4609 1.17188C22.3633 0.98633 21.8848 0.683596 21.709 0.683596C21.6602 0.683596 20.1367 1.68946 18.3203 2.91992Z" fill="#424242" fill-opacity="0.4"/>
<path d="M7.94922 10.1367C7.73438 10.3906 7.5293 10.6445 7.49024 10.7031C7.45117 10.7715 7.64649 11.0156 7.96875 11.2793C8.4961 11.7383 8.50586 11.7383 8.71094 11.5625C8.81836 11.4551 9.04297 11.2109 9.19922 11.0059L9.50196 10.6348L8.97461 10.1562C8.68164 9.89258 8.42774 9.67773 8.39844 9.66797C8.36914 9.66797 8.17383 9.87304 7.94922 10.1367Z" fill="#424242" fill-opacity="0.4"/>
<path d="M22.5293 11.3476C22.5098 11.416 22.3633 12.1387 22.2168 12.959L21.9336 14.4433L21.3477 14.6582C21.0156 14.7754 20.5176 14.9805 20.2344 15.1172L19.7266 15.3613L18.3887 14.4629L17.0508 13.5644L15.3027 15.3125L13.5547 17.0605L14.4531 18.3789L15.3613 19.707L15.0684 20.3222C14.9023 20.664 14.6973 21.1719 14.6094 21.4453L14.4531 21.9433L12.959 22.2168C12.1484 22.3633 11.416 22.5097 11.3574 22.5293C11.1719 22.5976 11.1719 27.4023 11.3574 27.4707C11.416 27.4902 12.1387 27.6367 12.959 27.7832L14.4434 28.0566L14.5996 28.5547C14.6973 28.8281 14.8926 29.3359 15.0488 29.6875L15.3418 30.3222L14.4531 31.6308L13.5645 32.9492L15.3125 34.6972L17.0605 36.4453L18.3789 35.5469L19.707 34.6387L20.3223 34.9316C20.6641 35.0976 21.1719 35.3027 21.4355 35.3906L21.9336 35.5469L22.2266 37.1387L22.5195 38.7207L24.9707 38.75C27.2461 38.7695 27.4316 38.7597 27.4707 38.6035C27.5 38.5058 27.6465 37.7832 27.793 37.0019L28.0664 35.5762L28.5547 35.4004C28.8281 35.3027 29.3359 35.0976 29.6875 34.9414L30.3223 34.6582L31.6309 35.5469L32.9492 36.4355L34.6875 34.6972L36.4258 32.959L35.5273 31.6113L34.6387 30.2734L34.9902 29.5117C35.1758 29.1015 35.3809 28.6035 35.4395 28.4082L35.5469 28.0664L37.041 27.793C37.8516 27.6367 38.584 27.4902 38.6523 27.4707C38.7402 27.4316 38.7695 26.8457 38.7695 25C38.7695 23.1543 38.7402 22.5683 38.6523 22.5293C38.584 22.5097 37.8516 22.3633 37.041 22.207L35.5469 21.9336L35.4395 21.5918C35.3809 21.3965 35.1758 20.8984 34.9805 20.4785L34.6387 19.7168L35.5371 18.3789L36.4355 17.0508L34.6973 15.3125L32.959 13.5742L31.6113 14.4726L30.2734 15.3613L29.5117 15.0097C29.1016 14.8242 28.6035 14.6191 28.4082 14.5605L28.0566 14.4433L27.793 13.0078C27.6465 12.2168 27.5 11.4941 27.4707 11.3965C27.4316 11.2402 27.2266 11.2305 25 11.2305C23.1543 11.2305 22.5684 11.2597 22.5293 11.3476ZM26.4844 14.248C26.6309 15.0195 26.7578 15.6543 26.7773 15.664C26.7969 15.6738 27.1387 15.7812 27.5391 15.8887C28.3398 16.123 29.3066 16.543 29.9414 16.9336L30.3418 17.1777L31.5527 16.3574L32.7539 15.5273L33.6133 16.3769C34.2676 17.0215 34.4434 17.2558 34.375 17.373C34.3262 17.4609 33.9648 18.0078 33.5645 18.5937L32.8418 19.6582L33.1641 20.2246C33.5645 20.8984 34.043 22.0605 34.1992 22.7344C34.2773 23.1055 34.3555 23.2422 34.5117 23.2715C34.6289 23.3008 35.2734 23.4277 35.9668 23.5547L37.2168 23.7793L37.1875 25L37.1582 26.2109L36.2305 26.3965C35.7227 26.4941 35.0684 26.6113 34.7949 26.6699C34.4141 26.748 34.2773 26.8164 34.2773 26.9336C34.2773 27.2754 33.6133 28.9941 33.2324 29.6582L32.832 30.3515L33.6523 31.5527L34.4727 32.7539L33.623 33.6133C33.1641 34.082 32.7344 34.4336 32.6758 34.4043C32.6172 34.3652 32.0605 34.0039 31.4453 33.5937L30.3223 32.8515L29.5898 33.2715C28.9355 33.6523 27.2656 34.2773 26.9141 34.2773C26.8164 34.2773 26.7383 34.4629 26.6699 34.7851C26.6113 35.0683 26.4941 35.7226 26.3965 36.2305L26.2109 37.1582L25 37.1875L23.7793 37.207L23.5059 35.7617L23.2324 34.3066L22.7539 34.1992C22.041 34.0332 20.8203 33.5449 20.2148 33.1738L19.6777 32.8418L18.4668 33.6621L17.2461 34.4824L16.3867 33.623L15.5273 32.7637L16.3477 31.5625L17.1777 30.3613L16.8359 29.7851C16.4355 29.1015 15.957 27.9394 15.8008 27.2558C15.6738 26.6992 15.8594 26.7773 13.7695 26.3867L12.8418 26.2207V25V23.7793L13.7695 23.6133C15.5078 23.291 15.7227 23.2324 15.7227 23.1055C15.7227 22.6855 16.4746 20.8008 16.9336 20.0586L17.1777 19.6582L16.3477 18.457L15.5273 17.2461L16.3672 16.3867C17.0215 15.7422 17.2559 15.5566 17.373 15.625C17.4609 15.6738 18.0078 16.0351 18.5938 16.4453L19.668 17.1777L20.0586 16.9336C20.8105 16.4746 22.6953 15.7226 23.0957 15.7226C23.2422 15.7226 23.2422 15.7031 23.5547 14.0332L23.7793 12.7832L25 12.8125L26.2207 12.8418L26.4844 14.248Z" fill="#424242" fill-opacity="0.4"/>
<path d="M23.877 19.8633C22.1191 20.2637 20.6543 21.5625 20.0391 23.2715C19.8145 23.877 19.7852 24.1309 19.7852 25.0488C19.7852 25.9473 19.834 26.2305 20.0293 26.7578C20.6348 28.3594 21.8164 29.4922 23.4375 30.0391C24.248 30.3125 25.8203 30.293 26.6895 29.9902C28.3887 29.4141 29.6289 28.0664 30.0781 26.3086C30.3125 25.4199 30.3223 24.6875 30.127 23.8672C29.707 22.0605 28.3887 20.6055 26.6699 20.0195C25.8789 19.7559 24.6484 19.6875 23.877 19.8633ZM26.582 21.6016C27.3047 21.9336 28.0664 22.6953 28.3984 23.418C28.6328 23.9063 28.6621 24.0918 28.6621 25C28.6621 25.9375 28.6328 26.0742 28.3789 26.6113C28.0078 27.3535 27.3535 28.0078 26.6113 28.3789C26.0742 28.6328 25.9375 28.6621 25 28.6621C24.0625 28.6621 23.9258 28.6328 23.3887 28.3789C22.6465 28.0078 21.9336 27.2949 21.6016 26.582C21.2305 25.8008 21.1816 24.5117 21.4844 23.7109C21.8652 22.6953 22.6562 21.8945 23.7207 21.4648C24.4238 21.1914 25.8398 21.25 26.582 21.6016Z" fill="#424242" fill-opacity="0.4"/>
<path d="M10.2148 12.4414C9.9707 12.7246 9.76562 12.9785 9.76562 13.0078C9.76562 13.0371 10.0195 13.2617 10.3418 13.5059L10.9082 13.9551L11.377 13.418L11.8457 12.8711L11.3672 12.3926C11.1133 12.1289 10.8398 11.9141 10.7812 11.9141C10.7129 11.9141 10.459 12.1484 10.2148 12.4414Z" fill="#424242" fill-opacity="0.4"/>
<path d="M5.35156 13.75C4.69727 14.8828 4.39453 15.4785 4.39453 15.625C4.39453 15.7227 5.6543 16.3477 5.71289 16.2891C5.73242 16.2695 5.89844 15.9473 6.08398 15.5664C6.2793 15.1856 6.5918 14.6191 6.77734 14.2969C6.97266 13.9844 7.12891 13.6914 7.12891 13.6621C7.12891 13.6035 6.94336 13.4766 6.14258 12.959L5.89844 12.793L5.35156 13.75Z" fill="#424242" fill-opacity="0.4"/>
<path d="M8.17383 15.3027C7.98828 15.6152 7.69531 16.1426 7.53906 16.4649L7.23633 17.0703L7.92969 17.3731C8.47656 17.627 8.64258 17.6563 8.70117 17.5586C8.75 17.4902 8.78906 17.4024 8.78906 17.3535C8.78906 17.3145 9.01367 16.8945 9.27734 16.416C9.55078 15.9375 9.76562 15.5274 9.76562 15.4981C9.76562 15.4297 8.68164 14.7461 8.58398 14.7461C8.54492 14.7461 8.35938 15 8.17383 15.3027Z" fill="#424242" fill-opacity="0.4"/>
<path d="M3.17382 18.7793C2.91015 19.668 2.59765 21.084 2.65625 21.1523C2.68554 21.1719 3.00781 21.25 3.39843 21.3184L4.09179 21.4551L4.24804 20.7129C4.33593 20.3027 4.51172 19.6289 4.6289 19.2188L4.85351 18.4668L4.14062 18.2227L3.41797 17.9785L3.17382 18.7793Z" fill="#424242" fill-opacity="0.4"/>
<path d="M6.28906 19.5703C6.20117 19.8926 6.04492 20.4883 5.95703 20.8691C5.80078 21.5234 5.80078 21.582 5.94726 21.6211C6.19141 21.6992 7.25586 21.875 7.27539 21.8457C7.28516 21.8359 7.40234 21.3672 7.53906 20.8008C7.68555 20.2344 7.82226 19.707 7.86133 19.6191C7.91016 19.4824 7.7832 19.4043 7.19726 19.209L6.46484 18.9648L6.28906 19.5703Z" fill="#424242" fill-opacity="0.4"/>
<path d="M2.30469 23.7891C2.2168 24.0332 2.23633 26.1426 2.34375 27.2559C2.60742 29.9219 3.41797 32.8223 4.58984 35.2148C7.87109 41.9141 14.248 46.5723 21.6992 47.7246C22.9199 47.9102 26.084 47.959 27.5488 47.8223L28.3887 47.7344L28.4668 48.2129C28.5547 48.8184 28.7207 49.082 29.1406 49.2188L29.4824 49.3262L32.793 46.8359C34.6191 45.4688 36.1426 44.2969 36.1816 44.2383C36.2793 44.0723 36.2598 43.3496 36.1523 43.2422C36.0156 43.1055 28.4082 40.918 28.0566 40.918C27.8711 40.918 27.6367 41.0059 27.4805 41.1426L27.2168 41.377L27.3633 42.1973C27.4512 42.6465 27.5098 43.0273 27.5 43.0371C27.4902 43.0566 26.9336 43.1055 26.2793 43.1641C24.1016 43.3594 21.5723 43.0371 19.2969 42.2754C14.2969 40.6152 10.2441 36.7676 8.27148 31.8359C7.40234 29.668 7.03125 27.6855 7.03125 25.2734V23.7598L6.33789 23.6914C5.80078 23.6328 5.61523 23.6523 5.55664 23.75C5.43945 23.9258 5.44922 25.8496 5.56641 27.0605C6.31836 34.5898 11.3379 41.0449 18.4082 43.5742C20.8203 44.4336 23.0469 44.7852 25.6348 44.6973C27.0117 44.6484 28.6719 44.4629 29.1602 44.2871C29.248 44.2578 29.2383 44.0527 29.1309 43.5059C29.0527 43.0859 29.0039 42.7344 29.0234 42.7246C29.043 42.6953 33.0371 43.8184 33.8281 44.0723C33.877 44.0918 32.998 44.7852 31.875 45.625L29.834 47.1582L29.7559 46.7969C29.707 46.6016 29.6582 46.3281 29.6289 46.2012C29.5801 45.9863 29.541 45.9766 29.1699 46.0352C27.1582 46.3379 26.6211 46.3867 25.0977 46.3867C24.1504 46.3867 23.0078 46.3379 22.5586 46.2891C11.8066 44.9512 3.80859 35.9766 3.80859 25.2441V23.7598L3.35937 23.6914C2.63672 23.5938 2.37305 23.623 2.30469 23.7891Z" fill="#424242" fill-opacity="0.4"/>
<path d="M42.5879 29.1211C42.4805 29.6191 42.3828 30.0586 42.3828 30.0976C42.3828 30.1367 42.6367 30.2344 42.9492 30.3222C43.252 30.4101 43.5742 30.498 43.6621 30.5273C43.7891 30.5566 43.8574 30.3808 44.0332 29.5996C44.1602 29.0625 44.2285 28.584 44.1992 28.5351C44.1699 28.4863 43.8965 28.4082 43.5938 28.3691C43.2812 28.3301 42.9785 28.2812 42.9199 28.2617C42.8418 28.2226 42.7344 28.5156 42.5879 29.1211Z" fill="#424242" fill-opacity="0.4"/>
<path d="M45.957 28.6816C45.9277 28.7207 45.8984 28.8379 45.8984 28.9453C45.8984 29.0625 45.791 29.6094 45.6543 30.166C45.5176 30.7227 45.4199 31.1914 45.4297 31.2012C45.4492 31.2207 45.7715 31.3184 46.1621 31.4258L46.8652 31.6211L47.1094 30.5859C47.2461 30.0098 47.3633 29.3848 47.3828 29.1992C47.4121 28.877 47.4023 28.8672 46.9727 28.7891C46.7285 28.75 46.416 28.7012 46.2793 28.6719C46.1328 28.6426 45.9961 28.6523 45.957 28.6816Z" fill="#424242" fill-opacity="0.4"/>
<path d="M41.3086 32.8809C40.8594 33.8477 40.8301 33.7793 41.7188 34.2383L42.1875 34.4727L42.4023 34.0625C42.7344 33.418 43.0664 32.7051 43.0664 32.6172C43.0664 32.5781 42.832 32.4609 42.5586 32.3438C42.2754 32.2363 41.9629 32.1191 41.875 32.0801C41.7481 32.0312 41.6309 32.1875 41.3086 32.8809Z" fill="#424242" fill-opacity="0.4"/>
<path d="M44.5313 33.5547C44.4238 33.7988 44.1797 34.3164 43.9941 34.6973C43.6719 35.3613 43.6621 35.4102 43.8184 35.5273C43.9941 35.6543 44.8828 36.1328 44.9512 36.1328C45.0293 36.1328 46.1035 33.7793 46.0742 33.6816C46.0449 33.584 44.9902 33.1055 44.8047 33.1055C44.7559 33.1055 44.6289 33.3105 44.5313 33.5547Z" fill="#424242" fill-opacity="0.4"/>
<path d="M39.5215 35.8496C39.375 36.0742 39.2578 36.2793 39.2773 36.3281C39.3066 36.4062 40.293 37.207 40.3711 37.207C40.4297 37.207 41.0156 36.3965 41.0156 36.3086C41.0156 36.25 39.9023 35.4395 39.8242 35.4492C39.8047 35.459 39.668 35.6348 39.5215 35.8496Z" fill="#424242" fill-opacity="0.4"/>
<path d="M42.2363 37.6074C42.041 37.8809 41.8555 38.1641 41.8359 38.2324C41.7871 38.3496 42.7246 39.1602 42.9004 39.1602C42.9981 39.1602 43.75 38.1348 43.75 38.0078C43.75 37.9492 43.4863 37.7246 43.1738 37.5098L42.5977 37.1094L42.2363 37.6074Z" fill="#424242" fill-opacity="0.4"/>
</svg>
