<svg width="50" height="50" viewBox="0 0 50 50" fill="none" xmlns="http://www.w3.org/2000/svg">
<g clip-path="url(#clip0_227_56)">
<path d="M18.7988 0.244137C18.5449 0.488277 18.4863 0.859371 18.6523 1.18164C18.7891 1.42578 20.0684 2.28515 20.8398 2.64648C21.4551 2.92968 22.5586 3.21289 23.0762 3.22265H23.3398V4.83398V6.44531H22.5586H21.7773V8.05664V9.66796H21.1621C19.0137 9.66796 17.2949 11.1035 16.9922 13.1543C16.9434 13.5156 16.8945 15.0879 16.8945 16.6406V19.4531L16.5918 19.3945C16.4258 19.3652 16.0742 19.3359 15.8105 19.3359H15.332V17.207C15.332 14.6484 15.2637 14.2969 14.5898 13.6328C13.9062 12.9492 13.5156 12.8711 11.0547 12.9102C8.80859 12.9394 8.59375 12.998 7.94921 13.6914C7.29492 14.375 7.27539 14.4629 7.24609 17.0019L7.20703 19.3066L6.51367 19.3555C5.71289 19.4043 5.18554 19.6387 4.72656 20.1367C4.07226 20.8203 4.05273 20.9082 4.02343 23.4473L3.98437 25.7617L2.90039 25.8008C1.92382 25.8398 1.74804 25.8691 1.28906 26.123C0.244135 26.6895 -0.0390682 27.3633 0.0195255 29.2285C0.0488224 30.3125 0.0878849 30.5762 0.263666 30.918C0.507807 31.377 0.996088 31.8359 1.42578 32.0117L1.72851 32.1387L2.4707 36.25C2.88085 38.5059 3.20312 40.3906 3.17382 40.4297C3.15429 40.4687 2.66601 40.8203 2.0996 41.2109C0.468744 42.334 0.0683536 42.959 0.058588 44.3359C0.0488224 45.0488 0.0878849 45.2441 0.32226 45.7129C0.908197 46.9141 2.08984 47.6172 3.36914 47.5293C3.74999 47.5 4.15039 47.4512 4.25781 47.4121C4.45312 47.3535 4.48242 47.3926 4.58007 47.8418C4.77539 48.7695 5.20507 49.3652 5.95703 49.7656C6.28906 49.9414 6.94335 49.9512 25 49.9512C43.0566 49.9512 43.7109 49.9414 44.043 49.7656C44.7949 49.3652 45.2246 48.7695 45.4199 47.8418C45.5176 47.3926 45.5469 47.3535 45.7422 47.4121C45.8496 47.4512 46.2598 47.5 46.6309 47.5293C48.7793 47.6758 50.4297 45.625 49.8633 43.5254C49.6191 42.6172 49.1894 42.1191 47.8906 41.2012C46.9531 40.5371 46.7676 40.3711 46.8066 40.1953C46.8359 40.0879 47.1777 38.2227 47.5684 36.0645L48.2715 32.1387L48.5742 32.0117C49.0039 31.8359 49.4922 31.377 49.7363 30.918C49.9121 30.5762 49.9512 30.3125 49.9805 29.2285C50.0391 27.3633 49.7559 26.6895 48.7109 26.123C48.2519 25.8691 48.0762 25.8398 47.0996 25.8008L46.0059 25.7617L45.9766 21.8359C45.9473 18.2422 45.9277 17.8906 45.7617 17.5781C45.5078 17.0996 45.0391 16.6211 44.5801 16.3769C44.1992 16.1621 44.0918 16.1621 39.4336 16.1328L34.6875 16.1035L34.6484 14.4238C34.6191 12.7734 34.6094 12.7344 34.3066 12.0898C33.584 10.5469 32.1582 9.66796 30.4199 9.66796H29.8828V8.05664V6.44531H29.0527H28.2227V4.83398V3.22265H28.5156C29.4043 3.22265 30.5762 3.68164 31.3965 4.3457C31.9531 4.80468 32.1289 4.86328 32.5488 4.75586C32.9004 4.6582 33.1445 4.13086 33.0176 3.77929C32.8809 3.41796 31.9629 2.67578 31.2012 2.30468C29.9902 1.70898 29.6387 1.66015 26.4551 1.66015C24.873 1.66015 23.2617 1.61132 22.8613 1.5625C22.0312 1.45507 21.3477 1.16211 20.3027 0.488277C19.4727 -0.0683632 19.1504 -0.117191 18.7988 0.244137ZM26.6406 4.85351L26.6602 6.44531H25.8301H25V4.83398V3.21289L25.8105 3.24218L26.6113 3.27148L26.6406 4.85351ZM28.2227 8.88671V9.66796H25.7812H23.3398V8.88671V8.10546H25.7812H28.2227V8.88671ZM31.6895 11.5625C31.9629 11.6894 32.3047 11.9336 32.4512 12.1094C32.9492 12.6953 33.0273 13.0273 33.0859 14.6191L33.125 16.1133H32.2852H31.4453V15.1074C31.4453 13.8965 31.2598 13.4766 30.5664 13.1152L30.127 12.8809L25.6641 12.9102C21.3379 12.9394 21.2012 12.9492 20.9375 13.1445C20.5469 13.4277 20.3125 13.7793 20.2148 14.2187C20.166 14.4238 20.1172 17.1191 20.1172 20.1855V25.7812H19.3359H18.5547V19.5703C18.5547 15.0879 18.584 13.2422 18.6719 12.9687C18.8184 12.4707 19.4727 11.7383 19.9707 11.5137C20.332 11.3477 20.7324 11.3281 25.7812 11.3281H31.2012L31.6895 11.5625ZM13.4473 14.7656C13.6719 14.9707 13.6719 15 13.6719 17.1582V19.3359H11.2793H8.88671V17.1875V15.0293L9.13085 14.7949C9.36523 14.5508 9.375 14.5508 11.2891 14.5508C13.1348 14.5508 13.2324 14.5605 13.4473 14.7656ZM29.8828 15.3809V16.2109L29.4141 16.5039C29.1602 16.6602 28.8477 16.9238 28.7305 17.0898C28.2422 17.7441 28.2227 17.9492 28.2227 21.6797V25.1758L27.5 24.8047C25.9082 24.0039 24.0918 24.0039 22.5 24.8047L21.7773 25.1758V19.8633V14.5508H25.8301H29.8828V15.3809ZM44.0918 18.0176C44.2969 18.2129 44.3359 18.3496 44.3359 18.7988V19.3359H37.1094H29.8828V18.7793C29.8828 18.3496 29.9316 18.1738 30.0977 17.998L30.3027 17.7734H37.0801H43.8574L44.0918 18.0176ZM16.6699 21.2109C16.8945 21.416 16.8945 21.4453 16.8945 23.6035V25.7812H16.1133H15.332V24.1699V22.5586H11.2793H7.22656V24.1699V25.7812H6.44531H5.66406V23.6328V21.4746L5.9082 21.2402L6.14257 20.9961H11.2891H16.4453L16.6699 21.2109ZM44.3359 23.3887V25.7812H43.5547H42.7734V24.1699V22.5586H37.1094H31.4453V24.1699V25.7812H30.6641H29.8828V23.3887V20.9961H37.1094H44.3359V23.3887ZM13.6719 25V25.7812H11.2793H8.88671V25V24.2187H11.2793H13.6719V25ZM41.1133 25V25.7812H37.1094H33.1055V25V24.2187H37.1094H41.1133V25ZM25.6836 25.8789C27.7539 26.2695 29.1113 28.0273 28.9746 30.1367C28.8672 31.9824 27.5195 33.457 25.6445 33.7988C23.9648 34.1113 22.1289 33.1543 21.3672 31.5527C20.8203 30.4004 20.8887 28.8867 21.543 27.7734C22.0605 26.8848 23.2031 26.0937 24.2383 25.8887C24.834 25.7715 25.0977 25.7715 25.6836 25.8789ZM19.8242 27.6367C19.7656 27.7539 19.6387 28.1543 19.541 28.5449L19.3652 29.248L18.3496 29.9609L17.334 30.6641L9.6875 30.6445L2.03124 30.6152L1.8457 30.3809C1.68945 30.1855 1.66015 29.9902 1.66015 29.0234C1.66015 27.998 1.67968 27.8711 1.87499 27.666L2.08007 27.4414H11.0059H19.9316L19.8242 27.6367ZM48.1152 27.6562C48.3203 27.8516 48.3398 27.9395 48.3398 29.0137C48.3398 29.9902 48.3105 30.1855 48.1543 30.3809L47.9687 30.6152L40.3125 30.6445L32.666 30.6641L31.6504 29.9609L30.6348 29.248L30.459 28.5449C30.3613 28.1543 30.2344 27.7539 30.1758 27.6367L30.0684 27.4414H38.9844H47.8906L48.1152 27.6562ZM19.8144 32.041C19.9316 32.334 20.2637 32.8906 20.5566 33.2715L21.0742 33.9551L12.6172 39.8145C7.95898 43.0371 4.04296 45.7324 3.91601 45.791C3.57421 45.9766 2.77343 45.9375 2.4121 45.7324C2.23632 45.625 2.00195 45.3906 1.87499 45.2051C1.67968 44.9316 1.65039 44.7754 1.67968 44.2773C1.69921 43.8867 1.77734 43.6035 1.90429 43.4277C2.01171 43.291 6.00585 40.4687 10.791 37.1582C18.0859 32.1094 19.4922 31.1719 19.541 31.3184C19.5801 31.416 19.707 31.7383 19.8144 32.041ZM39.5117 37.3633C48.7793 43.7793 48.3398 43.4277 48.3398 44.4141C48.3398 45.293 47.7051 45.9082 46.7871 45.918C46.4355 45.918 46.1816 45.8496 45.9082 45.6836C45.7031 45.5664 41.7871 42.8711 37.2266 39.707L28.916 33.9551L29.3457 33.4082C29.7852 32.8418 30.293 31.8945 30.4102 31.416C30.4785 31.1328 30.4785 31.1328 30.7422 31.3086C30.8887 31.3965 34.834 34.1309 39.5117 37.3633ZM14.8437 32.3633C14.5312 32.6562 4.76562 39.3652 4.71679 39.3164C4.66796 39.2676 3.42773 32.5879 3.41796 32.3437C3.41796 32.2559 4.63867 32.2266 9.19921 32.2266C14.1406 32.2266 14.9609 32.2461 14.8437 32.3633ZM46.582 32.3437C46.5723 32.5781 45.3418 39.2676 45.293 39.3164C45.2441 39.3555 35.459 32.6367 35.1562 32.3633C35.0391 32.2461 35.8594 32.2266 40.8008 32.2266C45.3613 32.2266 46.582 32.2559 46.582 32.3437ZM23.4863 35.2539C24.4043 35.5273 25.9082 35.4883 26.8652 35.166L27.5098 34.9414L30.1758 36.7871L32.832 38.623L28.916 38.6523C26.7676 38.6621 23.2422 38.6621 21.084 38.6523L17.1777 38.623L19.7949 36.7969C21.582 35.5469 22.4707 34.9805 22.6074 35.0098C22.7148 35.0293 23.1152 35.1367 23.4863 35.2539ZM33.8574 40.5469C33.7988 40.7617 33.3008 43.457 33.3008 43.5254C33.3008 43.5352 29.5703 43.5547 25 43.5547C20.4394 43.5547 16.6992 43.5352 16.6992 43.5254C16.6992 43.457 16.2012 40.7617 16.1426 40.5469L16.0937 40.332H25H33.9062L33.8574 40.5469ZM14.7852 42.002C14.9316 42.8125 15.0293 43.4961 15.0098 43.5156C14.9902 43.5449 13.8769 43.5449 12.5488 43.5352L10.1172 43.5059L12.2656 42.0215C13.4375 41.2012 14.4336 40.5371 14.4629 40.5273C14.4922 40.5273 14.6387 41.1914 14.7852 42.002ZM37.793 42.0508L39.8926 43.5059L37.4609 43.5352C36.123 43.5449 35.0098 43.5449 34.9902 43.5156C34.9023 43.4277 35.4883 40.5176 35.5859 40.5566C35.6445 40.5859 36.6406 41.25 37.793 42.0508ZM15.6348 46.582C15.7812 47.3633 15.9082 48.0762 15.9082 48.1641C15.918 48.3301 15.6348 48.3398 11.2793 48.3398C6.7871 48.3398 6.63085 48.3301 6.44531 48.1445C6.33789 48.0371 6.23046 47.8516 6.21093 47.7344C6.00585 46.7578 5.96679 46.4355 6.03515 46.3672C6.08398 46.3184 6.49414 46.0254 6.94335 45.7031L7.76367 45.127L11.5625 45.1465L15.3711 45.166L15.6348 46.582ZM32.9394 45.3125C32.9297 45.3906 32.8027 46.1035 32.666 46.8945L32.4023 48.3398H25H17.5977L17.4414 47.4609C17.3437 46.9727 17.2168 46.2793 17.1484 45.8984C17.0703 45.5273 17.041 45.1953 17.0703 45.166C17.0996 45.1367 20.6836 45.127 25.0391 45.1367C32.0117 45.166 32.959 45.1855 32.9394 45.3125ZM43.1348 45.7617C43.9062 46.2988 44.0527 46.4453 44.0137 46.6211C43.9844 46.7285 43.9258 47.002 43.8965 47.2168C43.8086 47.7832 43.6523 48.1348 43.4473 48.2422C43.1738 48.3984 34.082 48.3691 34.082 48.2227C34.082 48.0859 34.5605 45.4297 34.6191 45.2344C34.6582 45.1465 35.498 45.1172 38.4375 45.1172H42.207L43.1348 45.7617Z" fill="#424242" fill-opacity="0.4"/>
<path d="M23.916 27.7148C22.1582 28.6328 22.1582 31.0644 23.916 31.9531C25.3223 32.666 27.002 31.875 27.3535 30.3418C27.7832 28.3789 25.6934 26.7871 23.916 27.7148ZM25.3223 29.1211C25.6348 29.2773 25.7715 29.5019 25.7812 29.8144C25.7812 30.4199 25.2539 30.791 24.707 30.5664C24.0527 30.293 24.0332 29.4629 24.6582 29.1211C24.9121 28.9746 25.0586 28.9746 25.3223 29.1211Z" fill="#424242" fill-opacity="0.4"/>
</g>
<defs>
<clipPath id="clip0_227_56">
<rect width="50" height="50" fill="white"/>
</clipPath>
</defs>
</svg>
