<svg width="19" height="19" viewBox="0 0 19 19" fill="none" xmlns="http://www.w3.org/2000/svg">
<path d="M18.875 0.125H0.125V18.875H18.875V0.125ZM15.6531 13.3375L13.8458 13.3625C13.8458 13.3625 13.4562 13.4385 12.9458 13.0865C12.2698 12.6219 11.6323 11.4135 11.1354 11.5708C10.6312 11.7312 10.6469 12.8187 10.6469 12.8187C10.6469 12.8187 10.651 13.0104 10.5354 13.1354C10.4104 13.2698 10.1656 13.2562 10.1656 13.2562H9.35625C9.35625 13.2562 7.57083 13.4042 5.99687 11.7635C4.28229 9.975 2.76771 6.44479 2.76771 6.44479C2.76771 6.44479 2.67917 6.22188 2.77396 6.10833C2.88125 5.98229 3.17083 5.97917 3.17083 5.97917L5.10521 5.96979C5.10521 5.96979 5.2875 6.00208 5.41875 6.09792C5.52604 6.17708 5.5875 6.32604 5.5875 6.32604C5.5875 6.32604 5.9 7.11875 6.31458 7.83646C7.12292 9.23542 7.49896 9.54167 7.77292 9.39167C8.17292 9.17292 8.05312 7.41458 8.05312 7.41458C8.05312 7.41458 8.06042 6.77604 7.85208 6.49167C7.68958 6.26979 7.38438 6.20417 7.25 6.1875C7.14062 6.17292 7.31875 5.91979 7.55104 5.80521C7.89896 5.63542 8.51458 5.625 9.24063 5.63229C9.80625 5.63854 9.96979 5.67292 10.1906 5.72708C10.8583 5.88854 10.6313 6.51146 10.6313 8.00625C10.6313 8.48542 10.5448 9.15833 10.8896 9.38021C11.0385 9.47604 11.401 9.39479 12.3062 7.85312C12.7365 7.12187 13.0583 6.2625 13.0583 6.2625C13.0583 6.2625 13.1292 6.10938 13.2385 6.04375C13.351 5.97604 13.5021 5.99687 13.5021 5.99687L15.5385 5.98438C15.5385 5.98438 16.15 5.91042 16.25 6.18854C16.3542 6.47917 16.0219 7.15729 15.1896 8.26667C13.824 10.0896 13.6719 9.91979 14.8062 10.974C15.8896 11.9812 16.1135 12.4708 16.151 12.5323C16.599 13.2781 15.6531 13.3375 15.6531 13.3375Z" fill="white"/>
</svg>
