<svg width="25" height="25" viewBox="0 0 25 25" fill="none" xmlns="http://www.w3.org/2000/svg">
<path d="M19.8719 5.1335C17.9073 3.16787 15.2948 2.08454 12.5114 2.0835C6.77602 2.0835 2.10831 6.74912 2.10623 12.4845C2.10519 14.3179 2.58435 16.1075 3.49477 17.6845L2.08331 22.9168L7.53435 21.6283C9.05415 22.4575 10.7646 22.8939 12.5062 22.895H12.5104C18.2448 22.895 22.9125 18.2283 22.9156 12.4939C22.9177 9.7137 21.8364 7.10016 19.8719 5.1335ZM17.6021 16.2022C17.3854 16.8095 16.3239 17.395 15.8469 17.4377C15.3698 17.4814 14.9229 17.6533 12.7271 16.7877C10.0844 15.746 8.41561 13.0366 8.28644 12.8637C8.15623 12.6897 7.22498 11.4543 7.22498 10.1752C7.22498 8.896 7.89685 8.26683 8.1354 8.00745C8.37394 7.74704 8.65519 7.68245 8.82915 7.68245C9.00206 7.68245 9.17602 7.68245 9.32706 7.6887C9.51248 7.696 9.71769 7.70537 9.91248 8.13766C10.1437 8.65225 10.6489 9.93766 10.7135 10.0679C10.7781 10.1981 10.8219 10.3502 10.7354 10.5231C10.6489 10.696 10.6052 10.8043 10.476 10.9564C10.3458 11.1085 10.2031 11.295 10.0864 11.4116C9.95623 11.5408 9.82081 11.6825 9.97186 11.9418C10.1239 12.2022 10.6448 13.0533 11.4177 13.7418C12.4114 14.6272 13.2479 14.9012 13.5083 15.0325C13.7687 15.1627 13.9198 15.1408 14.0719 14.9668C14.2239 14.7939 14.7219 14.2085 14.8948 13.9481C15.0677 13.6877 15.2416 13.7314 15.4802 13.8179C15.7187 13.9043 16.9969 14.5335 17.2562 14.6637C17.5166 14.7939 17.6896 14.8585 17.7541 14.9668C17.8187 15.0741 17.8187 15.595 17.6021 16.2022Z" fill="white"/>
</svg>
